<mxfile host="app.diagrams.net" modified="2021-03-16T16:35:02.753Z" agent="5.0 (Windows NT 10.0; Win64; x64) AppleWebKit/537.36 (KHTML, like Gecko) Chrome/89.0.4389.90 Safari/537.36" etag="T9f0W_HHyvSfZFydvhAA" version="14.4.8" type="github">
  <diagram name="Page-1" id="efa7a0a1-bf9b-a30e-e6df-94a7791c09e9">
    <mxGraphModel dx="1874" dy="762" grid="1" gridSize="10" guides="1" tooltips="1" connect="1" arrows="1" fold="1" page="1" pageScale="1" pageWidth="826" pageHeight="1169" background="#ffffff" math="0" shadow="0">
      <root>
        <mxCell id="0" />
        <mxCell id="1" parent="0" />
        <mxCell id="um7V8yeOU8bJLNrAl1ep-114" value="ProductsCatalog" style="shape=table;startSize=30;container=1;collapsible=1;childLayout=tableLayout;fixedRows=1;rowLines=0;fontStyle=1;align=center;resizeLast=1;fillColor=#D5E8D4;strokeColor=#82b366;fontSize=13;" parent="1" vertex="1">
          <mxGeometry x="413" y="40" width="257" height="510" as="geometry" />
        </mxCell>
        <mxCell id="um7V8yeOU8bJLNrAl1ep-115" value="" style="shape=partialRectangle;collapsible=0;dropTarget=0;pointerEvents=0;fillColor=#d5e8d4;top=0;left=0;bottom=1;right=0;points=[[0,0.5],[1,0.5]];portConstraint=eastwest;strokeColor=#82b366;" parent="um7V8yeOU8bJLNrAl1ep-114" vertex="1">
          <mxGeometry y="30" width="257" height="30" as="geometry" />
        </mxCell>
        <mxCell id="um7V8yeOU8bJLNrAl1ep-116" value="PK" style="shape=partialRectangle;connectable=0;fillColor=#d5e8d4;top=0;left=0;bottom=0;right=0;fontStyle=1;overflow=hidden;strokeColor=#82b366;" parent="um7V8yeOU8bJLNrAl1ep-115" vertex="1">
          <mxGeometry width="52" height="30" as="geometry" />
        </mxCell>
        <mxCell id="um7V8yeOU8bJLNrAl1ep-117" value="ProductID (LongInteger)" style="shape=partialRectangle;connectable=0;fillColor=#d5e8d4;top=0;left=0;bottom=0;right=0;align=left;spacingLeft=6;fontStyle=5;overflow=hidden;strokeColor=#82b366;" parent="um7V8yeOU8bJLNrAl1ep-115" vertex="1">
          <mxGeometry x="52" width="205" height="30" as="geometry" />
        </mxCell>
        <mxCell id="um7V8yeOU8bJLNrAl1ep-144" style="shape=partialRectangle;collapsible=0;dropTarget=0;pointerEvents=0;fillColor=#d5e8d4;top=0;left=0;bottom=1;right=0;points=[[0,0.5],[1,0.5]];portConstraint=eastwest;strokeColor=#82b366;" parent="um7V8yeOU8bJLNrAl1ep-114" vertex="1">
          <mxGeometry y="60" width="257" height="30" as="geometry" />
        </mxCell>
        <mxCell id="um7V8yeOU8bJLNrAl1ep-145" value="FK" style="shape=partialRectangle;connectable=0;fillColor=#d5e8d4;top=0;left=0;bottom=0;right=0;fontStyle=1;overflow=hidden;strokeColor=#82b366;" parent="um7V8yeOU8bJLNrAl1ep-144" vertex="1">
          <mxGeometry width="52" height="30" as="geometry" />
        </mxCell>
        <mxCell id="um7V8yeOU8bJLNrAl1ep-146" value="ManufacturerID (LongInteger)" style="shape=partialRectangle;connectable=0;fillColor=#d5e8d4;top=0;left=0;bottom=0;right=0;align=left;spacingLeft=6;fontStyle=5;overflow=hidden;strokeColor=#82b366;" parent="um7V8yeOU8bJLNrAl1ep-144" vertex="1">
          <mxGeometry x="52" width="205" height="30" as="geometry" />
        </mxCell>
        <mxCell id="um7V8yeOU8bJLNrAl1ep-141" style="shape=partialRectangle;collapsible=0;dropTarget=0;pointerEvents=0;fillColor=#d5e8d4;top=0;left=0;bottom=1;right=0;points=[[0,0.5],[1,0.5]];portConstraint=eastwest;strokeColor=#82b366;" parent="um7V8yeOU8bJLNrAl1ep-114" vertex="1">
          <mxGeometry y="90" width="257" height="30" as="geometry" />
        </mxCell>
        <mxCell id="um7V8yeOU8bJLNrAl1ep-142" value="FK" style="shape=partialRectangle;connectable=0;fillColor=#d5e8d4;top=0;left=0;bottom=0;right=0;fontStyle=1;overflow=hidden;strokeColor=#82b366;" parent="um7V8yeOU8bJLNrAl1ep-141" vertex="1">
          <mxGeometry width="52" height="30" as="geometry" />
        </mxCell>
        <mxCell id="um7V8yeOU8bJLNrAl1ep-143" value="CategoryID (LongInteger)" style="shape=partialRectangle;connectable=0;fillColor=#d5e8d4;top=0;left=0;bottom=0;right=0;align=left;spacingLeft=6;fontStyle=5;overflow=hidden;strokeColor=#82b366;" parent="um7V8yeOU8bJLNrAl1ep-141" vertex="1">
          <mxGeometry x="52" width="205" height="30" as="geometry" />
        </mxCell>
        <mxCell id="um7V8yeOU8bJLNrAl1ep-118" value="" style="shape=partialRectangle;collapsible=0;dropTarget=0;pointerEvents=0;fillColor=#d5e8d4;top=0;left=0;bottom=0;right=0;points=[[0,0.5],[1,0.5]];portConstraint=eastwest;strokeColor=#82b366;" parent="um7V8yeOU8bJLNrAl1ep-114" vertex="1">
          <mxGeometry y="120" width="257" height="30" as="geometry" />
        </mxCell>
        <mxCell id="um7V8yeOU8bJLNrAl1ep-119" value="" style="shape=partialRectangle;connectable=0;fillColor=#d5e8d4;top=0;left=0;bottom=0;right=0;editable=1;overflow=hidden;strokeColor=#82b366;" parent="um7V8yeOU8bJLNrAl1ep-118" vertex="1">
          <mxGeometry width="52" height="30" as="geometry" />
        </mxCell>
        <mxCell id="um7V8yeOU8bJLNrAl1ep-120" value="ProductName (Text)" style="shape=partialRectangle;connectable=0;fillColor=#d5e8d4;top=0;left=0;bottom=0;right=0;align=left;spacingLeft=6;overflow=hidden;strokeColor=#82b366;" parent="um7V8yeOU8bJLNrAl1ep-118" vertex="1">
          <mxGeometry x="52" width="205" height="30" as="geometry" />
        </mxCell>
        <mxCell id="um7V8yeOU8bJLNrAl1ep-121" value="" style="shape=partialRectangle;collapsible=0;dropTarget=0;pointerEvents=0;fillColor=#d5e8d4;top=0;left=0;bottom=0;right=0;points=[[0,0.5],[1,0.5]];portConstraint=eastwest;strokeColor=#82b366;" parent="um7V8yeOU8bJLNrAl1ep-114" vertex="1">
          <mxGeometry y="150" width="257" height="30" as="geometry" />
        </mxCell>
        <mxCell id="um7V8yeOU8bJLNrAl1ep-122" value="" style="shape=partialRectangle;connectable=0;fillColor=#d5e8d4;top=0;left=0;bottom=0;right=0;editable=1;overflow=hidden;strokeColor=#82b366;" parent="um7V8yeOU8bJLNrAl1ep-121" vertex="1">
          <mxGeometry width="52" height="30" as="geometry" />
        </mxCell>
        <mxCell id="um7V8yeOU8bJLNrAl1ep-123" value="ProductDescription (Text)" style="shape=partialRectangle;connectable=0;fillColor=#d5e8d4;top=0;left=0;bottom=0;right=0;align=left;spacingLeft=6;overflow=hidden;strokeColor=#82b366;" parent="um7V8yeOU8bJLNrAl1ep-121" vertex="1">
          <mxGeometry x="52" width="205" height="30" as="geometry" />
        </mxCell>
        <mxCell id="BsSwm072BiJTackBYxDn-29" style="shape=partialRectangle;collapsible=0;dropTarget=0;pointerEvents=0;fillColor=#d5e8d4;top=0;left=0;bottom=0;right=0;points=[[0,0.5],[1,0.5]];portConstraint=eastwest;strokeColor=#82b366;" vertex="1" parent="um7V8yeOU8bJLNrAl1ep-114">
          <mxGeometry y="180" width="257" height="30" as="geometry" />
        </mxCell>
        <mxCell id="BsSwm072BiJTackBYxDn-30" style="shape=partialRectangle;connectable=0;fillColor=#d5e8d4;top=0;left=0;bottom=0;right=0;editable=1;overflow=hidden;strokeColor=#82b366;" vertex="1" parent="BsSwm072BiJTackBYxDn-29">
          <mxGeometry width="52" height="30" as="geometry" />
        </mxCell>
        <mxCell id="BsSwm072BiJTackBYxDn-31" value="Product Detailed Description (Text)" style="shape=partialRectangle;connectable=0;fillColor=#d5e8d4;top=0;left=0;bottom=0;right=0;align=left;spacingLeft=6;overflow=hidden;strokeColor=#82b366;" vertex="1" parent="BsSwm072BiJTackBYxDn-29">
          <mxGeometry x="52" width="205" height="30" as="geometry" />
        </mxCell>
        <mxCell id="um7V8yeOU8bJLNrAl1ep-124" value="" style="shape=partialRectangle;collapsible=0;dropTarget=0;pointerEvents=0;fillColor=#d5e8d4;top=0;left=0;bottom=0;right=0;points=[[0,0.5],[1,0.5]];portConstraint=eastwest;strokeColor=#82b366;" parent="um7V8yeOU8bJLNrAl1ep-114" vertex="1">
          <mxGeometry y="210" width="257" height="30" as="geometry" />
        </mxCell>
        <mxCell id="um7V8yeOU8bJLNrAl1ep-125" value="" style="shape=partialRectangle;connectable=0;fillColor=#d5e8d4;top=0;left=0;bottom=0;right=0;editable=1;overflow=hidden;strokeColor=#82b366;" parent="um7V8yeOU8bJLNrAl1ep-124" vertex="1">
          <mxGeometry width="52" height="30" as="geometry" />
        </mxCell>
        <mxCell id="um7V8yeOU8bJLNrAl1ep-126" value="ProductType (Boolean)" style="shape=partialRectangle;connectable=0;fillColor=#d5e8d4;top=0;left=0;bottom=0;right=0;align=left;spacingLeft=6;overflow=hidden;strokeColor=#82b366;" parent="um7V8yeOU8bJLNrAl1ep-124" vertex="1">
          <mxGeometry x="52" width="205" height="30" as="geometry" />
        </mxCell>
        <mxCell id="um7V8yeOU8bJLNrAl1ep-147" style="shape=partialRectangle;collapsible=0;dropTarget=0;pointerEvents=0;fillColor=#d5e8d4;top=0;left=0;bottom=0;right=0;points=[[0,0.5],[1,0.5]];portConstraint=eastwest;strokeColor=#82b366;" parent="um7V8yeOU8bJLNrAl1ep-114" vertex="1">
          <mxGeometry y="240" width="257" height="30" as="geometry" />
        </mxCell>
        <mxCell id="um7V8yeOU8bJLNrAl1ep-148" value="UK" style="shape=partialRectangle;connectable=0;fillColor=#FFFF33;top=0;left=0;bottom=0;right=0;editable=1;overflow=hidden;strokeColor=#82b366;" parent="um7V8yeOU8bJLNrAl1ep-147" vertex="1">
          <mxGeometry width="52" height="30" as="geometry" />
        </mxCell>
        <mxCell id="um7V8yeOU8bJLNrAl1ep-149" value="SKUNumber (Text)" style="shape=partialRectangle;connectable=0;fillColor=#d5e8d4;top=0;left=0;bottom=0;right=0;align=left;spacingLeft=6;overflow=hidden;strokeColor=#82b366;" parent="um7V8yeOU8bJLNrAl1ep-147" vertex="1">
          <mxGeometry x="52" width="205" height="30" as="geometry" />
        </mxCell>
        <mxCell id="BsSwm072BiJTackBYxDn-4" style="shape=partialRectangle;collapsible=0;dropTarget=0;pointerEvents=0;fillColor=#d5e8d4;top=0;left=0;bottom=0;right=0;points=[[0,0.5],[1,0.5]];portConstraint=eastwest;strokeColor=#82b366;" vertex="1" parent="um7V8yeOU8bJLNrAl1ep-114">
          <mxGeometry y="270" width="257" height="30" as="geometry" />
        </mxCell>
        <mxCell id="BsSwm072BiJTackBYxDn-5" value="" style="shape=partialRectangle;connectable=0;fillColor=#FFFF33;top=0;left=0;bottom=0;right=0;editable=1;overflow=hidden;strokeColor=#82b366;" vertex="1" parent="BsSwm072BiJTackBYxDn-4">
          <mxGeometry width="52" height="30" as="geometry" />
        </mxCell>
        <mxCell id="BsSwm072BiJTackBYxDn-6" value="ManufacturerPartNumber (Text)" style="shape=partialRectangle;connectable=0;fillColor=#d5e8d4;top=0;left=0;bottom=0;right=0;align=left;spacingLeft=6;overflow=hidden;strokeColor=#82b366;" vertex="1" parent="BsSwm072BiJTackBYxDn-4">
          <mxGeometry x="52" width="205" height="30" as="geometry" />
        </mxCell>
        <mxCell id="BsSwm072BiJTackBYxDn-1" style="shape=partialRectangle;collapsible=0;dropTarget=0;pointerEvents=0;fillColor=#d5e8d4;top=0;left=0;bottom=0;right=0;points=[[0,0.5],[1,0.5]];portConstraint=eastwest;strokeColor=#82b366;" vertex="1" parent="um7V8yeOU8bJLNrAl1ep-114">
          <mxGeometry y="300" width="257" height="30" as="geometry" />
        </mxCell>
        <mxCell id="BsSwm072BiJTackBYxDn-2" style="shape=partialRectangle;connectable=0;fillColor=#d5e8d4;top=0;left=0;bottom=0;right=0;editable=1;overflow=hidden;strokeColor=#82b366;" vertex="1" parent="BsSwm072BiJTackBYxDn-1">
          <mxGeometry width="52" height="30" as="geometry" />
        </mxCell>
        <mxCell id="BsSwm072BiJTackBYxDn-3" value="CountryCode (Text 2)" style="shape=partialRectangle;connectable=0;fillColor=#d5e8d4;top=0;left=0;bottom=0;right=0;align=left;spacingLeft=6;overflow=hidden;strokeColor=#82b366;" vertex="1" parent="BsSwm072BiJTackBYxDn-1">
          <mxGeometry x="52" width="205" height="30" as="geometry" />
        </mxCell>
        <mxCell id="BsSwm072BiJTackBYxDn-35" style="shape=partialRectangle;collapsible=0;dropTarget=0;pointerEvents=0;fillColor=#d5e8d4;top=0;left=0;bottom=0;right=0;points=[[0,0.5],[1,0.5]];portConstraint=eastwest;strokeColor=#82b366;" vertex="1" parent="um7V8yeOU8bJLNrAl1ep-114">
          <mxGeometry y="330" width="257" height="30" as="geometry" />
        </mxCell>
        <mxCell id="BsSwm072BiJTackBYxDn-36" style="shape=partialRectangle;connectable=0;fillColor=#d5e8d4;top=0;left=0;bottom=0;right=0;editable=1;overflow=hidden;strokeColor=#82b366;" vertex="1" parent="BsSwm072BiJTackBYxDn-35">
          <mxGeometry width="52" height="30" as="geometry" />
        </mxCell>
        <mxCell id="BsSwm072BiJTackBYxDn-37" value="LeasePrice (Decimal 8.2)" style="shape=partialRectangle;connectable=0;fillColor=#d5e8d4;top=0;left=0;bottom=0;right=0;align=left;spacingLeft=6;overflow=hidden;strokeColor=#82b366;" vertex="1" parent="BsSwm072BiJTackBYxDn-35">
          <mxGeometry x="52" width="205" height="30" as="geometry" />
        </mxCell>
        <mxCell id="BsSwm072BiJTackBYxDn-38" style="shape=partialRectangle;collapsible=0;dropTarget=0;pointerEvents=0;fillColor=#d5e8d4;top=0;left=0;bottom=0;right=0;points=[[0,0.5],[1,0.5]];portConstraint=eastwest;strokeColor=#82b366;" vertex="1" parent="um7V8yeOU8bJLNrAl1ep-114">
          <mxGeometry y="360" width="257" height="30" as="geometry" />
        </mxCell>
        <mxCell id="BsSwm072BiJTackBYxDn-39" style="shape=partialRectangle;connectable=0;fillColor=#d5e8d4;top=0;left=0;bottom=0;right=0;editable=1;overflow=hidden;strokeColor=#82b366;" vertex="1" parent="BsSwm072BiJTackBYxDn-38">
          <mxGeometry width="52" height="30" as="geometry" />
        </mxCell>
        <mxCell id="BsSwm072BiJTackBYxDn-40" value="SellingPrice (Decimal 8.2)" style="shape=partialRectangle;connectable=0;fillColor=#d5e8d4;top=0;left=0;bottom=0;right=0;align=left;spacingLeft=6;overflow=hidden;strokeColor=#82b366;" vertex="1" parent="BsSwm072BiJTackBYxDn-38">
          <mxGeometry x="52" width="205" height="30" as="geometry" />
        </mxCell>
        <mxCell id="BsSwm072BiJTackBYxDn-41" style="shape=partialRectangle;collapsible=0;dropTarget=0;pointerEvents=0;fillColor=#d5e8d4;top=0;left=0;bottom=0;right=0;points=[[0,0.5],[1,0.5]];portConstraint=eastwest;strokeColor=#82b366;" vertex="1" parent="um7V8yeOU8bJLNrAl1ep-114">
          <mxGeometry y="390" width="257" height="30" as="geometry" />
        </mxCell>
        <mxCell id="BsSwm072BiJTackBYxDn-42" style="shape=partialRectangle;connectable=0;fillColor=#d5e8d4;top=0;left=0;bottom=0;right=0;editable=1;overflow=hidden;strokeColor=#82b366;" vertex="1" parent="BsSwm072BiJTackBYxDn-41">
          <mxGeometry width="52" height="30" as="geometry" />
        </mxCell>
        <mxCell id="BsSwm072BiJTackBYxDn-43" value="BillingPeriod (Text)" style="shape=partialRectangle;connectable=0;fillColor=#d5e8d4;top=0;left=0;bottom=0;right=0;align=left;spacingLeft=6;overflow=hidden;strokeColor=#82b366;" vertex="1" parent="BsSwm072BiJTackBYxDn-41">
          <mxGeometry x="52" width="205" height="30" as="geometry" />
        </mxCell>
        <mxCell id="BsSwm072BiJTackBYxDn-44" style="shape=partialRectangle;collapsible=0;dropTarget=0;pointerEvents=0;fillColor=#d5e8d4;top=0;left=0;bottom=0;right=0;points=[[0,0.5],[1,0.5]];portConstraint=eastwest;strokeColor=#82b366;" vertex="1" parent="um7V8yeOU8bJLNrAl1ep-114">
          <mxGeometry y="420" width="257" height="30" as="geometry" />
        </mxCell>
        <mxCell id="BsSwm072BiJTackBYxDn-45" style="shape=partialRectangle;connectable=0;fillColor=#d5e8d4;top=0;left=0;bottom=0;right=0;editable=1;overflow=hidden;strokeColor=#82b366;" vertex="1" parent="BsSwm072BiJTackBYxDn-44">
          <mxGeometry width="52" height="30" as="geometry" />
        </mxCell>
        <mxCell id="BsSwm072BiJTackBYxDn-46" value="Status (Text)" style="shape=partialRectangle;connectable=0;fillColor=#d5e8d4;top=0;left=0;bottom=0;right=0;align=left;spacingLeft=6;overflow=hidden;strokeColor=#82b366;" vertex="1" parent="BsSwm072BiJTackBYxDn-44">
          <mxGeometry x="52" width="205" height="30" as="geometry" />
        </mxCell>
        <mxCell id="BsSwm072BiJTackBYxDn-50" style="shape=partialRectangle;collapsible=0;dropTarget=0;pointerEvents=0;fillColor=#d5e8d4;top=0;left=0;bottom=0;right=0;points=[[0,0.5],[1,0.5]];portConstraint=eastwest;strokeColor=#82b366;" vertex="1" parent="um7V8yeOU8bJLNrAl1ep-114">
          <mxGeometry y="450" width="257" height="30" as="geometry" />
        </mxCell>
        <mxCell id="BsSwm072BiJTackBYxDn-51" style="shape=partialRectangle;connectable=0;fillColor=#d5e8d4;top=0;left=0;bottom=0;right=0;editable=1;overflow=hidden;strokeColor=#82b366;" vertex="1" parent="BsSwm072BiJTackBYxDn-50">
          <mxGeometry width="52" height="30" as="geometry" />
        </mxCell>
        <mxCell id="BsSwm072BiJTackBYxDn-52" value="ActivationDate (Date Time)" style="shape=partialRectangle;connectable=0;fillColor=#d5e8d4;top=0;left=0;bottom=0;right=0;align=left;spacingLeft=6;overflow=hidden;strokeColor=#82b366;" vertex="1" parent="BsSwm072BiJTackBYxDn-50">
          <mxGeometry x="52" width="205" height="30" as="geometry" />
        </mxCell>
        <mxCell id="BsSwm072BiJTackBYxDn-53" style="shape=partialRectangle;collapsible=0;dropTarget=0;pointerEvents=0;fillColor=#d5e8d4;top=0;left=0;bottom=0;right=0;points=[[0,0.5],[1,0.5]];portConstraint=eastwest;strokeColor=#82b366;" vertex="1" parent="um7V8yeOU8bJLNrAl1ep-114">
          <mxGeometry y="480" width="257" height="30" as="geometry" />
        </mxCell>
        <mxCell id="BsSwm072BiJTackBYxDn-54" style="shape=partialRectangle;connectable=0;fillColor=#d5e8d4;top=0;left=0;bottom=0;right=0;editable=1;overflow=hidden;strokeColor=#82b366;" vertex="1" parent="BsSwm072BiJTackBYxDn-53">
          <mxGeometry width="52" height="30" as="geometry" />
        </mxCell>
        <mxCell id="BsSwm072BiJTackBYxDn-55" value="DeactivationDate  (Date Time)" style="shape=partialRectangle;connectable=0;fillColor=#d5e8d4;top=0;left=0;bottom=0;right=0;align=left;spacingLeft=6;overflow=hidden;strokeColor=#82b366;" vertex="1" parent="BsSwm072BiJTackBYxDn-53">
          <mxGeometry x="52" width="205" height="30" as="geometry" />
        </mxCell>
        <mxCell id="um7V8yeOU8bJLNrAl1ep-151" value="CatalogImages" style="shape=table;startSize=30;container=1;collapsible=1;childLayout=tableLayout;fixedRows=1;rowLines=0;fontStyle=1;align=center;resizeLast=1;fillColor=#d5e8d4;strokeColor=#82b366;fontSize=13;" parent="1" vertex="1">
          <mxGeometry x="53.5" y="41" width="180" height="150" as="geometry" />
        </mxCell>
        <mxCell id="um7V8yeOU8bJLNrAl1ep-152" value="" style="shape=partialRectangle;collapsible=0;dropTarget=0;pointerEvents=0;fillColor=#d5e8d4;top=0;left=0;bottom=1;right=0;points=[[0,0.5],[1,0.5]];portConstraint=eastwest;strokeColor=#82b366;" parent="um7V8yeOU8bJLNrAl1ep-151" vertex="1">
          <mxGeometry y="30" width="180" height="30" as="geometry" />
        </mxCell>
        <mxCell id="um7V8yeOU8bJLNrAl1ep-153" value="PK" style="shape=partialRectangle;connectable=0;fillColor=#d5e8d4;top=0;left=0;bottom=0;right=0;fontStyle=1;overflow=hidden;strokeColor=#82b366;" parent="um7V8yeOU8bJLNrAl1ep-152" vertex="1">
          <mxGeometry width="30" height="30" as="geometry" />
        </mxCell>
        <mxCell id="um7V8yeOU8bJLNrAl1ep-154" value="ImageID  (LongInteger)" style="shape=partialRectangle;connectable=0;fillColor=#d5e8d4;top=0;left=0;bottom=0;right=0;align=left;spacingLeft=6;fontStyle=5;overflow=hidden;strokeColor=#82b366;" parent="um7V8yeOU8bJLNrAl1ep-152" vertex="1">
          <mxGeometry x="30" width="150" height="30" as="geometry" />
        </mxCell>
        <mxCell id="um7V8yeOU8bJLNrAl1ep-167" style="shape=partialRectangle;collapsible=0;dropTarget=0;pointerEvents=0;fillColor=#d5e8d4;top=0;left=0;bottom=1;right=0;points=[[0,0.5],[1,0.5]];portConstraint=eastwest;strokeColor=#82b366;" parent="um7V8yeOU8bJLNrAl1ep-151" vertex="1">
          <mxGeometry y="60" width="180" height="30" as="geometry" />
        </mxCell>
        <mxCell id="um7V8yeOU8bJLNrAl1ep-168" value="FK" style="shape=partialRectangle;connectable=0;fillColor=#d5e8d4;top=0;left=0;bottom=0;right=0;fontStyle=1;overflow=hidden;strokeColor=#82b366;" parent="um7V8yeOU8bJLNrAl1ep-167" vertex="1">
          <mxGeometry width="30" height="30" as="geometry" />
        </mxCell>
        <mxCell id="um7V8yeOU8bJLNrAl1ep-169" value="ProductID (LongInteger)" style="shape=partialRectangle;connectable=0;fillColor=#d5e8d4;top=0;left=0;bottom=0;right=0;align=left;spacingLeft=6;fontStyle=5;overflow=hidden;strokeColor=#82b366;" parent="um7V8yeOU8bJLNrAl1ep-167" vertex="1">
          <mxGeometry x="30" width="150" height="30" as="geometry" />
        </mxCell>
        <mxCell id="um7V8yeOU8bJLNrAl1ep-155" value="" style="shape=partialRectangle;collapsible=0;dropTarget=0;pointerEvents=0;fillColor=#d5e8d4;top=0;left=0;bottom=0;right=0;points=[[0,0.5],[1,0.5]];portConstraint=eastwest;strokeColor=#82b366;" parent="um7V8yeOU8bJLNrAl1ep-151" vertex="1">
          <mxGeometry y="90" width="180" height="30" as="geometry" />
        </mxCell>
        <mxCell id="um7V8yeOU8bJLNrAl1ep-156" value="" style="shape=partialRectangle;connectable=0;fillColor=#d5e8d4;top=0;left=0;bottom=0;right=0;editable=1;overflow=hidden;strokeColor=#82b366;" parent="um7V8yeOU8bJLNrAl1ep-155" vertex="1">
          <mxGeometry width="30" height="30" as="geometry" />
        </mxCell>
        <mxCell id="um7V8yeOU8bJLNrAl1ep-157" value="ProductImage (byte)" style="shape=partialRectangle;connectable=0;fillColor=#d5e8d4;top=0;left=0;bottom=0;right=0;align=left;spacingLeft=6;overflow=hidden;strokeColor=#82b366;" parent="um7V8yeOU8bJLNrAl1ep-155" vertex="1">
          <mxGeometry x="30" width="150" height="30" as="geometry" />
        </mxCell>
        <mxCell id="um7V8yeOU8bJLNrAl1ep-158" value="" style="shape=partialRectangle;collapsible=0;dropTarget=0;pointerEvents=0;fillColor=#d5e8d4;top=0;left=0;bottom=0;right=0;points=[[0,0.5],[1,0.5]];portConstraint=eastwest;strokeColor=#82b366;" parent="um7V8yeOU8bJLNrAl1ep-151" vertex="1">
          <mxGeometry y="120" width="180" height="30" as="geometry" />
        </mxCell>
        <mxCell id="um7V8yeOU8bJLNrAl1ep-159" value="" style="shape=partialRectangle;connectable=0;fillColor=#d5e8d4;top=0;left=0;bottom=0;right=0;editable=1;overflow=hidden;strokeColor=#82b366;" parent="um7V8yeOU8bJLNrAl1ep-158" vertex="1">
          <mxGeometry width="30" height="30" as="geometry" />
        </mxCell>
        <mxCell id="um7V8yeOU8bJLNrAl1ep-160" value="IsActive (Boolean)" style="shape=partialRectangle;connectable=0;fillColor=#d5e8d4;top=0;left=0;bottom=0;right=0;align=left;spacingLeft=6;overflow=hidden;strokeColor=#82b366;" parent="um7V8yeOU8bJLNrAl1ep-158" vertex="1">
          <mxGeometry x="30" width="150" height="30" as="geometry" />
        </mxCell>
        <mxCell id="um7V8yeOU8bJLNrAl1ep-171" value="Manufacturer" style="shape=table;startSize=30;container=1;collapsible=1;childLayout=tableLayout;fixedRows=1;rowLines=0;fontStyle=1;align=center;resizeLast=1;fillColor=#d5e8d4;strokeColor=#82b366;" parent="1" vertex="1">
          <mxGeometry x="20" y="230" width="230" height="150" as="geometry" />
        </mxCell>
        <mxCell id="um7V8yeOU8bJLNrAl1ep-172" value="" style="shape=partialRectangle;collapsible=0;dropTarget=0;pointerEvents=0;fillColor=#d5e8d4;top=0;left=0;bottom=1;right=0;points=[[0,0.5],[1,0.5]];portConstraint=eastwest;strokeColor=#82b366;" parent="um7V8yeOU8bJLNrAl1ep-171" vertex="1">
          <mxGeometry y="30" width="230" height="30" as="geometry" />
        </mxCell>
        <mxCell id="um7V8yeOU8bJLNrAl1ep-173" value="PK" style="shape=partialRectangle;connectable=0;fillColor=#d5e8d4;top=0;left=0;bottom=0;right=0;fontStyle=1;overflow=hidden;strokeColor=#82b366;" parent="um7V8yeOU8bJLNrAl1ep-172" vertex="1">
          <mxGeometry width="30" height="30" as="geometry" />
        </mxCell>
        <mxCell id="um7V8yeOU8bJLNrAl1ep-174" value="ManufacturerID (LongInteger)" style="shape=partialRectangle;connectable=0;fillColor=#d5e8d4;top=0;left=0;bottom=0;right=0;align=left;spacingLeft=6;fontStyle=5;overflow=hidden;strokeColor=#82b366;" parent="um7V8yeOU8bJLNrAl1ep-172" vertex="1">
          <mxGeometry x="30" width="200" height="30" as="geometry" />
        </mxCell>
        <mxCell id="um7V8yeOU8bJLNrAl1ep-178" value="" style="shape=partialRectangle;collapsible=0;dropTarget=0;pointerEvents=0;fillColor=#d5e8d4;top=0;left=0;bottom=0;right=0;points=[[0,0.5],[1,0.5]];portConstraint=eastwest;strokeColor=#82b366;" parent="um7V8yeOU8bJLNrAl1ep-171" vertex="1">
          <mxGeometry y="60" width="230" height="30" as="geometry" />
        </mxCell>
        <mxCell id="um7V8yeOU8bJLNrAl1ep-179" value="" style="shape=partialRectangle;connectable=0;fillColor=#d5e8d4;top=0;left=0;bottom=0;right=0;editable=1;overflow=hidden;strokeColor=#82b366;" parent="um7V8yeOU8bJLNrAl1ep-178" vertex="1">
          <mxGeometry width="30" height="30" as="geometry" />
        </mxCell>
        <mxCell id="um7V8yeOU8bJLNrAl1ep-180" value="ManufacturerCode (Text 3)" style="shape=partialRectangle;connectable=0;fillColor=#d5e8d4;top=0;left=0;bottom=0;right=0;align=left;spacingLeft=6;overflow=hidden;strokeColor=#82b366;" parent="um7V8yeOU8bJLNrAl1ep-178" vertex="1">
          <mxGeometry x="30" width="200" height="30" as="geometry" />
        </mxCell>
        <mxCell id="um7V8yeOU8bJLNrAl1ep-181" value="" style="shape=partialRectangle;collapsible=0;dropTarget=0;pointerEvents=0;fillColor=#d5e8d4;top=0;left=0;bottom=0;right=0;points=[[0,0.5],[1,0.5]];portConstraint=eastwest;strokeColor=#82b366;" parent="um7V8yeOU8bJLNrAl1ep-171" vertex="1">
          <mxGeometry y="90" width="230" height="30" as="geometry" />
        </mxCell>
        <mxCell id="um7V8yeOU8bJLNrAl1ep-182" value="" style="shape=partialRectangle;connectable=0;fillColor=#d5e8d4;top=0;left=0;bottom=0;right=0;editable=1;overflow=hidden;strokeColor=#82b366;" parent="um7V8yeOU8bJLNrAl1ep-181" vertex="1">
          <mxGeometry width="30" height="30" as="geometry" />
        </mxCell>
        <mxCell id="um7V8yeOU8bJLNrAl1ep-183" value="ManufacturerName (Text)" style="shape=partialRectangle;connectable=0;fillColor=#d5e8d4;top=0;left=0;bottom=0;right=0;align=left;spacingLeft=6;overflow=hidden;strokeColor=#82b366;" parent="um7V8yeOU8bJLNrAl1ep-181" vertex="1">
          <mxGeometry x="30" width="200" height="30" as="geometry" />
        </mxCell>
        <mxCell id="um7V8yeOU8bJLNrAl1ep-187" style="shape=partialRectangle;collapsible=0;dropTarget=0;pointerEvents=0;fillColor=#d5e8d4;top=0;left=0;bottom=0;right=0;points=[[0,0.5],[1,0.5]];portConstraint=eastwest;strokeColor=#82b366;" parent="um7V8yeOU8bJLNrAl1ep-171" vertex="1">
          <mxGeometry y="120" width="230" height="30" as="geometry" />
        </mxCell>
        <mxCell id="um7V8yeOU8bJLNrAl1ep-188" style="shape=partialRectangle;connectable=0;fillColor=#d5e8d4;top=0;left=0;bottom=0;right=0;editable=1;overflow=hidden;strokeColor=#82b366;" parent="um7V8yeOU8bJLNrAl1ep-187" vertex="1">
          <mxGeometry width="30" height="30" as="geometry" />
        </mxCell>
        <mxCell id="um7V8yeOU8bJLNrAl1ep-189" value="IsActive (Boolean)" style="shape=partialRectangle;connectable=0;fillColor=#d5e8d4;top=0;left=0;bottom=0;right=0;align=left;spacingLeft=6;overflow=hidden;strokeColor=#82b366;" parent="um7V8yeOU8bJLNrAl1ep-187" vertex="1">
          <mxGeometry x="30" width="200" height="30" as="geometry" />
        </mxCell>
        <mxCell id="um7V8yeOU8bJLNrAl1ep-211" value="" style="edgeStyle=elbowEdgeStyle;fontSize=12;html=1;endArrow=ERmandOne;startArrow=ERmandOne;entryX=0;entryY=0.5;entryDx=0;entryDy=0;exitX=1;exitY=0.5;exitDx=0;exitDy=0;fillColor=#d5e8d4;" parent="1" source="um7V8yeOU8bJLNrAl1ep-115" target="um7V8yeOU8bJLNrAl1ep-207" edge="1">
          <mxGeometry width="100" height="100" relative="1" as="geometry">
            <mxPoint x="308" y="295" as="sourcePoint" />
            <mxPoint x="318" y="95" as="targetPoint" />
          </mxGeometry>
        </mxCell>
        <mxCell id="um7V8yeOU8bJLNrAl1ep-255" value="Country" style="shape=table;startSize=30;container=1;collapsible=1;childLayout=tableLayout;fixedRows=1;rowLines=0;fontStyle=1;align=center;resizeLast=1;fillColor=#d5e8d4;strokeColor=#82b366;fontSize=13;" parent="1" vertex="1">
          <mxGeometry x="780" y="551" width="180" height="150" as="geometry" />
        </mxCell>
        <mxCell id="um7V8yeOU8bJLNrAl1ep-256" value="" style="shape=partialRectangle;collapsible=0;dropTarget=0;pointerEvents=0;fillColor=#d5e8d4;top=0;left=0;bottom=1;right=0;points=[[0,0.5],[1,0.5]];portConstraint=eastwest;strokeColor=#82b366;" parent="um7V8yeOU8bJLNrAl1ep-255" vertex="1">
          <mxGeometry y="30" width="180" height="30" as="geometry" />
        </mxCell>
        <mxCell id="um7V8yeOU8bJLNrAl1ep-257" value="PK" style="shape=partialRectangle;connectable=0;fillColor=#d5e8d4;top=0;left=0;bottom=0;right=0;fontStyle=1;overflow=hidden;strokeColor=#82b366;" parent="um7V8yeOU8bJLNrAl1ep-256" vertex="1">
          <mxGeometry width="30" height="30" as="geometry" />
        </mxCell>
        <mxCell id="um7V8yeOU8bJLNrAl1ep-258" value="CountryCode (Text 2)" style="shape=partialRectangle;connectable=0;fillColor=#d5e8d4;top=0;left=0;bottom=0;right=0;align=left;spacingLeft=6;fontStyle=5;overflow=hidden;strokeColor=#82b366;" parent="um7V8yeOU8bJLNrAl1ep-256" vertex="1">
          <mxGeometry x="30" width="150" height="30" as="geometry" />
        </mxCell>
        <mxCell id="um7V8yeOU8bJLNrAl1ep-259" style="shape=partialRectangle;collapsible=0;dropTarget=0;pointerEvents=0;fillColor=#d5e8d4;top=0;left=0;bottom=1;right=0;points=[[0,0.5],[1,0.5]];portConstraint=eastwest;strokeColor=#82b366;" parent="um7V8yeOU8bJLNrAl1ep-255" vertex="1">
          <mxGeometry y="60" width="180" height="30" as="geometry" />
        </mxCell>
        <mxCell id="um7V8yeOU8bJLNrAl1ep-260" value="FK" style="shape=partialRectangle;connectable=0;fillColor=#d5e8d4;top=0;left=0;bottom=0;right=0;fontStyle=1;overflow=hidden;strokeColor=#82b366;" parent="um7V8yeOU8bJLNrAl1ep-259" vertex="1">
          <mxGeometry width="30" height="30" as="geometry" />
        </mxCell>
        <mxCell id="um7V8yeOU8bJLNrAl1ep-261" value="CurrencyCode ((Text 3)" style="shape=partialRectangle;connectable=0;fillColor=#d5e8d4;top=0;left=0;bottom=0;right=0;align=left;spacingLeft=6;fontStyle=5;overflow=hidden;strokeColor=#82b366;" parent="um7V8yeOU8bJLNrAl1ep-259" vertex="1">
          <mxGeometry x="30" width="150" height="30" as="geometry" />
        </mxCell>
        <mxCell id="um7V8yeOU8bJLNrAl1ep-271" style="shape=partialRectangle;collapsible=0;dropTarget=0;pointerEvents=0;fillColor=#d5e8d4;top=0;left=0;bottom=1;right=0;points=[[0,0.5],[1,0.5]];portConstraint=eastwest;strokeColor=#82b366;" parent="um7V8yeOU8bJLNrAl1ep-255" vertex="1">
          <mxGeometry y="90" width="180" height="30" as="geometry" />
        </mxCell>
        <mxCell id="um7V8yeOU8bJLNrAl1ep-272" value="FK" style="shape=partialRectangle;connectable=0;fillColor=#d5e8d4;top=0;left=0;bottom=0;right=0;fontStyle=1;overflow=hidden;strokeColor=#82b366;" parent="um7V8yeOU8bJLNrAl1ep-271" vertex="1">
          <mxGeometry width="30" height="30" as="geometry" />
        </mxCell>
        <mxCell id="um7V8yeOU8bJLNrAl1ep-273" value="LanguageCode (Text)" style="shape=partialRectangle;connectable=0;fillColor=#d5e8d4;top=0;left=0;bottom=0;right=0;align=left;spacingLeft=6;fontStyle=5;overflow=hidden;strokeColor=#82b366;" parent="um7V8yeOU8bJLNrAl1ep-271" vertex="1">
          <mxGeometry x="30" width="150" height="30" as="geometry" />
        </mxCell>
        <mxCell id="um7V8yeOU8bJLNrAl1ep-410" style="shape=partialRectangle;collapsible=0;dropTarget=0;pointerEvents=0;fillColor=#d5e8d4;top=0;left=0;bottom=1;right=0;points=[[0,0.5],[1,0.5]];portConstraint=eastwest;strokeColor=#82b366;" parent="um7V8yeOU8bJLNrAl1ep-255" vertex="1">
          <mxGeometry y="120" width="180" height="30" as="geometry" />
        </mxCell>
        <mxCell id="um7V8yeOU8bJLNrAl1ep-411" style="shape=partialRectangle;connectable=0;fillColor=#d5e8d4;top=0;left=0;bottom=0;right=0;fontStyle=1;overflow=hidden;strokeColor=#82b366;" parent="um7V8yeOU8bJLNrAl1ep-410" vertex="1">
          <mxGeometry width="30" height="30" as="geometry" />
        </mxCell>
        <mxCell id="um7V8yeOU8bJLNrAl1ep-412" value="CountryName (Text)" style="shape=partialRectangle;connectable=0;fillColor=#d5e8d4;top=0;left=0;bottom=0;right=0;align=left;spacingLeft=6;fontStyle=5;overflow=hidden;strokeColor=#82b366;" parent="um7V8yeOU8bJLNrAl1ep-410" vertex="1">
          <mxGeometry x="30" width="150" height="30" as="geometry" />
        </mxCell>
        <mxCell id="um7V8yeOU8bJLNrAl1ep-274" value="Language" style="shape=table;startSize=30;container=1;collapsible=1;childLayout=tableLayout;fixedRows=1;rowLines=0;fontStyle=1;align=center;resizeLast=1;fillColor=#d5e8d4;strokeColor=#82b366;fontSize=13;" parent="1" vertex="1">
          <mxGeometry x="1239" y="410" width="180" height="90" as="geometry" />
        </mxCell>
        <mxCell id="um7V8yeOU8bJLNrAl1ep-275" value="" style="shape=partialRectangle;collapsible=0;dropTarget=0;pointerEvents=0;fillColor=#d5e8d4;top=0;left=0;bottom=1;right=0;points=[[0,0.5],[1,0.5]];portConstraint=eastwest;strokeColor=#82b366;" parent="um7V8yeOU8bJLNrAl1ep-274" vertex="1">
          <mxGeometry y="30" width="180" height="30" as="geometry" />
        </mxCell>
        <mxCell id="um7V8yeOU8bJLNrAl1ep-276" value="PK" style="shape=partialRectangle;connectable=0;fillColor=#d5e8d4;top=0;left=0;bottom=0;right=0;fontStyle=1;overflow=hidden;strokeColor=#82b366;" parent="um7V8yeOU8bJLNrAl1ep-275" vertex="1">
          <mxGeometry width="30" height="30" as="geometry" />
        </mxCell>
        <mxCell id="um7V8yeOU8bJLNrAl1ep-277" value="LanguageCode (Text)" style="shape=partialRectangle;connectable=0;fillColor=#d5e8d4;top=0;left=0;bottom=0;right=0;align=left;spacingLeft=6;fontStyle=5;overflow=hidden;strokeColor=#82b366;" parent="um7V8yeOU8bJLNrAl1ep-275" vertex="1">
          <mxGeometry x="30" width="150" height="30" as="geometry" />
        </mxCell>
        <mxCell id="um7V8yeOU8bJLNrAl1ep-284" value="" style="shape=partialRectangle;collapsible=0;dropTarget=0;pointerEvents=0;fillColor=#d5e8d4;top=0;left=0;bottom=0;right=0;points=[[0,0.5],[1,0.5]];portConstraint=eastwest;strokeColor=#82b366;" parent="um7V8yeOU8bJLNrAl1ep-274" vertex="1">
          <mxGeometry y="60" width="180" height="30" as="geometry" />
        </mxCell>
        <mxCell id="um7V8yeOU8bJLNrAl1ep-285" value="" style="shape=partialRectangle;connectable=0;fillColor=#d5e8d4;top=0;left=0;bottom=0;right=0;editable=1;overflow=hidden;strokeColor=#82b366;" parent="um7V8yeOU8bJLNrAl1ep-284" vertex="1">
          <mxGeometry width="30" height="30" as="geometry" />
        </mxCell>
        <mxCell id="um7V8yeOU8bJLNrAl1ep-286" value="LanguageName (Text)" style="shape=partialRectangle;connectable=0;fillColor=#d5e8d4;top=0;left=0;bottom=0;right=0;align=left;spacingLeft=6;overflow=hidden;strokeColor=#82b366;" parent="um7V8yeOU8bJLNrAl1ep-284" vertex="1">
          <mxGeometry x="30" width="150" height="30" as="geometry" />
        </mxCell>
        <mxCell id="um7V8yeOU8bJLNrAl1ep-295" value="" style="edgeStyle=elbowEdgeStyle;fontSize=12;html=1;endArrow=ERzeroToMany;startArrow=ERmandOne;entryX=1;entryY=0.5;entryDx=0;entryDy=0;exitX=0;exitY=0.5;exitDx=0;exitDy=0;fillColor=#d5e8d4;" parent="1" source="um7V8yeOU8bJLNrAl1ep-115" target="um7V8yeOU8bJLNrAl1ep-167" edge="1">
          <mxGeometry width="100" height="100" relative="1" as="geometry">
            <mxPoint x="306" y="600" as="sourcePoint" />
            <mxPoint x="406" y="500" as="targetPoint" />
          </mxGeometry>
        </mxCell>
        <mxCell id="um7V8yeOU8bJLNrAl1ep-298" value="" style="edgeStyle=elbowEdgeStyle;fontSize=12;html=1;endArrow=ERoneToMany;startArrow=ERmandOne;entryX=0;entryY=0.5;entryDx=0;entryDy=0;exitX=1;exitY=0.5;exitDx=0;exitDy=0;fillColor=#d5e8d4;" parent="1" source="um7V8yeOU8bJLNrAl1ep-172" target="um7V8yeOU8bJLNrAl1ep-144" edge="1">
          <mxGeometry width="100" height="100" relative="1" as="geometry">
            <mxPoint x="166" y="560" as="sourcePoint" />
            <mxPoint x="266" y="460" as="targetPoint" />
          </mxGeometry>
        </mxCell>
        <mxCell id="um7V8yeOU8bJLNrAl1ep-299" value="Currency" style="shape=table;startSize=30;container=1;collapsible=1;childLayout=tableLayout;fixedRows=1;rowLines=0;fontStyle=1;align=center;resizeLast=1;fillColor=#d5e8d4;strokeColor=#82b366;fontSize=13;" parent="1" vertex="1">
          <mxGeometry x="1230" y="80" width="180" height="120" as="geometry" />
        </mxCell>
        <mxCell id="um7V8yeOU8bJLNrAl1ep-300" value="" style="shape=partialRectangle;collapsible=0;dropTarget=0;pointerEvents=0;fillColor=#d5e8d4;top=0;left=0;bottom=1;right=0;points=[[0,0.5],[1,0.5]];portConstraint=eastwest;strokeColor=#82b366;" parent="um7V8yeOU8bJLNrAl1ep-299" vertex="1">
          <mxGeometry y="30" width="180" height="30" as="geometry" />
        </mxCell>
        <mxCell id="um7V8yeOU8bJLNrAl1ep-301" value="PK" style="shape=partialRectangle;connectable=0;fillColor=#d5e8d4;top=0;left=0;bottom=0;right=0;fontStyle=1;overflow=hidden;strokeColor=#82b366;" parent="um7V8yeOU8bJLNrAl1ep-300" vertex="1">
          <mxGeometry width="30" height="30" as="geometry" />
        </mxCell>
        <mxCell id="um7V8yeOU8bJLNrAl1ep-302" value="CurrencyCode (Text 3)" style="shape=partialRectangle;connectable=0;fillColor=#d5e8d4;top=0;left=0;bottom=0;right=0;align=left;spacingLeft=6;fontStyle=5;overflow=hidden;strokeColor=#82b366;" parent="um7V8yeOU8bJLNrAl1ep-300" vertex="1">
          <mxGeometry x="30" width="150" height="30" as="geometry" />
        </mxCell>
        <mxCell id="um7V8yeOU8bJLNrAl1ep-303" value="" style="shape=partialRectangle;collapsible=0;dropTarget=0;pointerEvents=0;fillColor=#d5e8d4;top=0;left=0;bottom=0;right=0;points=[[0,0.5],[1,0.5]];portConstraint=eastwest;strokeColor=#82b366;" parent="um7V8yeOU8bJLNrAl1ep-299" vertex="1">
          <mxGeometry y="60" width="180" height="30" as="geometry" />
        </mxCell>
        <mxCell id="um7V8yeOU8bJLNrAl1ep-304" value="" style="shape=partialRectangle;connectable=0;fillColor=#d5e8d4;top=0;left=0;bottom=0;right=0;editable=1;overflow=hidden;strokeColor=#82b366;" parent="um7V8yeOU8bJLNrAl1ep-303" vertex="1">
          <mxGeometry width="30" height="30" as="geometry" />
        </mxCell>
        <mxCell id="um7V8yeOU8bJLNrAl1ep-305" value="CurrencyName (Text)" style="shape=partialRectangle;connectable=0;fillColor=#d5e8d4;top=0;left=0;bottom=0;right=0;align=left;spacingLeft=6;overflow=hidden;strokeColor=#82b366;" parent="um7V8yeOU8bJLNrAl1ep-303" vertex="1">
          <mxGeometry x="30" width="150" height="30" as="geometry" />
        </mxCell>
        <mxCell id="um7V8yeOU8bJLNrAl1ep-306" value="" style="shape=partialRectangle;collapsible=0;dropTarget=0;pointerEvents=0;fillColor=#d5e8d4;top=0;left=0;bottom=0;right=0;points=[[0,0.5],[1,0.5]];portConstraint=eastwest;strokeColor=#82b366;" parent="um7V8yeOU8bJLNrAl1ep-299" vertex="1">
          <mxGeometry y="90" width="180" height="30" as="geometry" />
        </mxCell>
        <mxCell id="um7V8yeOU8bJLNrAl1ep-307" value="" style="shape=partialRectangle;connectable=0;fillColor=#d5e8d4;top=0;left=0;bottom=0;right=0;editable=1;overflow=hidden;strokeColor=#82b366;" parent="um7V8yeOU8bJLNrAl1ep-306" vertex="1">
          <mxGeometry width="30" height="30" as="geometry" />
        </mxCell>
        <mxCell id="um7V8yeOU8bJLNrAl1ep-308" value="CurrencySymbol (Text 2)" style="shape=partialRectangle;connectable=0;fillColor=#d5e8d4;top=0;left=0;bottom=0;right=0;align=left;spacingLeft=6;overflow=hidden;strokeColor=#82b366;" parent="um7V8yeOU8bJLNrAl1ep-306" vertex="1">
          <mxGeometry x="30" width="150" height="30" as="geometry" />
        </mxCell>
        <mxCell id="um7V8yeOU8bJLNrAl1ep-333" value="" style="edgeStyle=elbowEdgeStyle;fontSize=12;html=1;endArrow=ERmandOne;startArrow=ERmandOne;entryX=0;entryY=0.5;entryDx=0;entryDy=0;fillColor=#d5e8d4;exitX=1;exitY=0.5;exitDx=0;exitDy=0;" parent="1" source="BsSwm072BiJTackBYxDn-1" target="um7V8yeOU8bJLNrAl1ep-256" edge="1">
          <mxGeometry width="100" height="100" relative="1" as="geometry">
            <mxPoint x="620" y="320" as="sourcePoint" />
            <mxPoint x="1010" y="450" as="targetPoint" />
            <Array as="points">
              <mxPoint x="680" y="380" />
              <mxPoint x="720" y="510" />
              <mxPoint x="800" y="240" />
            </Array>
          </mxGeometry>
        </mxCell>
        <mxCell id="um7V8yeOU8bJLNrAl1ep-378" value="Roles" style="shape=table;startSize=30;container=1;collapsible=1;childLayout=tableLayout;fixedRows=1;rowLines=0;fontStyle=1;align=center;resizeLast=1;fillColor=#FF0000;strokeColor=#d6b656;fontSize=13;" parent="1" vertex="1">
          <mxGeometry x="30" y="680" width="180" height="120" as="geometry" />
        </mxCell>
        <mxCell id="um7V8yeOU8bJLNrAl1ep-379" value="" style="shape=partialRectangle;collapsible=0;dropTarget=0;pointerEvents=0;fillColor=#FF0000;top=0;left=0;bottom=1;right=0;points=[[0,0.5],[1,0.5]];portConstraint=eastwest;strokeColor=#d6b656;" parent="um7V8yeOU8bJLNrAl1ep-378" vertex="1">
          <mxGeometry y="30" width="180" height="30" as="geometry" />
        </mxCell>
        <mxCell id="um7V8yeOU8bJLNrAl1ep-380" value="PK" style="shape=partialRectangle;connectable=0;fillColor=#FF0000;top=0;left=0;bottom=0;right=0;fontStyle=1;overflow=hidden;strokeColor=#d6b656;" parent="um7V8yeOU8bJLNrAl1ep-379" vertex="1">
          <mxGeometry width="30" height="30" as="geometry" />
        </mxCell>
        <mxCell id="um7V8yeOU8bJLNrAl1ep-381" value="RoleID" style="shape=partialRectangle;connectable=0;fillColor=#FF0000;top=0;left=0;bottom=0;right=0;align=left;spacingLeft=6;fontStyle=5;overflow=hidden;strokeColor=#d6b656;" parent="um7V8yeOU8bJLNrAl1ep-379" vertex="1">
          <mxGeometry x="30" width="150" height="30" as="geometry" />
        </mxCell>
        <mxCell id="um7V8yeOU8bJLNrAl1ep-382" value="" style="shape=partialRectangle;collapsible=0;dropTarget=0;pointerEvents=0;fillColor=#FF0000;top=0;left=0;bottom=0;right=0;points=[[0,0.5],[1,0.5]];portConstraint=eastwest;strokeColor=#d6b656;" parent="um7V8yeOU8bJLNrAl1ep-378" vertex="1">
          <mxGeometry y="60" width="180" height="30" as="geometry" />
        </mxCell>
        <mxCell id="um7V8yeOU8bJLNrAl1ep-383" value="" style="shape=partialRectangle;connectable=0;fillColor=#FF0000;top=0;left=0;bottom=0;right=0;editable=1;overflow=hidden;strokeColor=#d6b656;" parent="um7V8yeOU8bJLNrAl1ep-382" vertex="1">
          <mxGeometry width="30" height="30" as="geometry" />
        </mxCell>
        <mxCell id="um7V8yeOU8bJLNrAl1ep-384" value="RolesName" style="shape=partialRectangle;connectable=0;fillColor=#FF0000;top=0;left=0;bottom=0;right=0;align=left;spacingLeft=6;overflow=hidden;strokeColor=#d6b656;" parent="um7V8yeOU8bJLNrAl1ep-382" vertex="1">
          <mxGeometry x="30" width="150" height="30" as="geometry" />
        </mxCell>
        <mxCell id="um7V8yeOU8bJLNrAl1ep-385" value="" style="shape=partialRectangle;collapsible=0;dropTarget=0;pointerEvents=0;fillColor=#FF0000;top=0;left=0;bottom=0;right=0;points=[[0,0.5],[1,0.5]];portConstraint=eastwest;strokeColor=#d6b656;" parent="um7V8yeOU8bJLNrAl1ep-378" vertex="1">
          <mxGeometry y="90" width="180" height="30" as="geometry" />
        </mxCell>
        <mxCell id="um7V8yeOU8bJLNrAl1ep-386" value="" style="shape=partialRectangle;connectable=0;fillColor=#FF0000;top=0;left=0;bottom=0;right=0;editable=1;overflow=hidden;strokeColor=#d6b656;" parent="um7V8yeOU8bJLNrAl1ep-385" vertex="1">
          <mxGeometry width="30" height="30" as="geometry" />
        </mxCell>
        <mxCell id="um7V8yeOU8bJLNrAl1ep-387" value="RoleDescription" style="shape=partialRectangle;connectable=0;fillColor=#FF0000;top=0;left=0;bottom=0;right=0;align=left;spacingLeft=6;overflow=hidden;strokeColor=#d6b656;" parent="um7V8yeOU8bJLNrAl1ep-385" vertex="1">
          <mxGeometry x="30" width="150" height="30" as="geometry" />
        </mxCell>
        <mxCell id="um7V8yeOU8bJLNrAl1ep-391" value="CatalogPersonaMapping" style="shape=table;startSize=30;container=1;collapsible=1;childLayout=tableLayout;fixedRows=1;rowLines=0;fontStyle=1;align=center;resizeLast=1;fillColor=#D5E8D4;strokeColor=#d6b656;fontSize=13;" parent="1" vertex="1">
          <mxGeometry x="460" y="660" width="280" height="150" as="geometry" />
        </mxCell>
        <mxCell id="um7V8yeOU8bJLNrAl1ep-392" value="" style="shape=partialRectangle;collapsible=0;dropTarget=0;pointerEvents=0;fillColor=#D5E8D4;top=0;left=0;bottom=1;right=0;points=[[0,0.5],[1,0.5]];portConstraint=eastwest;strokeColor=#d6b656;" parent="um7V8yeOU8bJLNrAl1ep-391" vertex="1">
          <mxGeometry y="30" width="280" height="30" as="geometry" />
        </mxCell>
        <mxCell id="um7V8yeOU8bJLNrAl1ep-393" value="PK" style="shape=partialRectangle;connectable=0;fillColor=#D5E8D4;top=0;left=0;bottom=0;right=0;fontStyle=1;overflow=hidden;strokeColor=#d6b656;" parent="um7V8yeOU8bJLNrAl1ep-392" vertex="1">
          <mxGeometry width="30" height="30" as="geometry" />
        </mxCell>
        <mxCell id="um7V8yeOU8bJLNrAl1ep-394" value="CatalogPersonaMappingID (LongInteger)" style="shape=partialRectangle;connectable=0;fillColor=#D5E8D4;top=0;left=0;bottom=0;right=0;align=left;spacingLeft=6;fontStyle=5;overflow=hidden;strokeColor=#d6b656;" parent="um7V8yeOU8bJLNrAl1ep-392" vertex="1">
          <mxGeometry x="30" width="250" height="30" as="geometry" />
        </mxCell>
        <mxCell id="um7V8yeOU8bJLNrAl1ep-395" value="" style="shape=partialRectangle;collapsible=0;dropTarget=0;pointerEvents=0;fillColor=#D5E8D4;top=0;left=0;bottom=0;right=0;points=[[0,0.5],[1,0.5]];portConstraint=eastwest;strokeColor=#d6b656;" parent="um7V8yeOU8bJLNrAl1ep-391" vertex="1">
          <mxGeometry y="60" width="280" height="30" as="geometry" />
        </mxCell>
        <mxCell id="um7V8yeOU8bJLNrAl1ep-396" value="" style="shape=partialRectangle;connectable=0;fillColor=#D5E8D4;top=0;left=0;bottom=0;right=0;editable=1;overflow=hidden;strokeColor=#d6b656;" parent="um7V8yeOU8bJLNrAl1ep-395" vertex="1">
          <mxGeometry width="30" height="30" as="geometry" />
        </mxCell>
        <mxCell id="um7V8yeOU8bJLNrAl1ep-397" value="ProductID (LongInteger)" style="shape=partialRectangle;connectable=0;fillColor=#D5E8D4;top=0;left=0;bottom=0;right=0;align=left;spacingLeft=6;overflow=hidden;strokeColor=#d6b656;" parent="um7V8yeOU8bJLNrAl1ep-395" vertex="1">
          <mxGeometry x="30" width="250" height="30" as="geometry" />
        </mxCell>
        <mxCell id="um7V8yeOU8bJLNrAl1ep-398" value="" style="shape=partialRectangle;collapsible=0;dropTarget=0;pointerEvents=0;fillColor=#D5E8D4;top=0;left=0;bottom=0;right=0;points=[[0,0.5],[1,0.5]];portConstraint=eastwest;strokeColor=#d6b656;" parent="um7V8yeOU8bJLNrAl1ep-391" vertex="1">
          <mxGeometry y="90" width="280" height="30" as="geometry" />
        </mxCell>
        <mxCell id="um7V8yeOU8bJLNrAl1ep-399" value="" style="shape=partialRectangle;connectable=0;fillColor=#D5E8D4;top=0;left=0;bottom=0;right=0;editable=1;overflow=hidden;strokeColor=#d6b656;" parent="um7V8yeOU8bJLNrAl1ep-398" vertex="1">
          <mxGeometry width="30" height="30" as="geometry" />
        </mxCell>
        <mxCell id="um7V8yeOU8bJLNrAl1ep-400" value="PersonaID (LongInteger)" style="shape=partialRectangle;connectable=0;fillColor=#D5E8D4;top=0;left=0;bottom=0;right=0;align=left;spacingLeft=6;overflow=hidden;strokeColor=#d6b656;" parent="um7V8yeOU8bJLNrAl1ep-398" vertex="1">
          <mxGeometry x="30" width="250" height="30" as="geometry" />
        </mxCell>
        <mxCell id="um7V8yeOU8bJLNrAl1ep-401" style="shape=partialRectangle;collapsible=0;dropTarget=0;pointerEvents=0;fillColor=#D5E8D4;top=0;left=0;bottom=0;right=0;points=[[0,0.5],[1,0.5]];portConstraint=eastwest;strokeColor=#d6b656;" parent="um7V8yeOU8bJLNrAl1ep-391" vertex="1">
          <mxGeometry y="120" width="280" height="30" as="geometry" />
        </mxCell>
        <mxCell id="um7V8yeOU8bJLNrAl1ep-402" style="shape=partialRectangle;connectable=0;fillColor=#D5E8D4;top=0;left=0;bottom=0;right=0;editable=1;overflow=hidden;strokeColor=#d6b656;" parent="um7V8yeOU8bJLNrAl1ep-401" vertex="1">
          <mxGeometry width="30" height="30" as="geometry" />
        </mxCell>
        <mxCell id="um7V8yeOU8bJLNrAl1ep-403" value="IsActive (Boolean)" style="shape=partialRectangle;connectable=0;fillColor=#D5E8D4;top=0;left=0;bottom=0;right=0;align=left;spacingLeft=6;overflow=hidden;strokeColor=#d6b656;" parent="um7V8yeOU8bJLNrAl1ep-401" vertex="1">
          <mxGeometry x="30" width="250" height="30" as="geometry" />
        </mxCell>
        <mxCell id="um7V8yeOU8bJLNrAl1ep-404" value="" style="edgeStyle=elbowEdgeStyle;fontSize=12;html=1;endArrow=ERoneToMany;startArrow=ERmandOne;fillColor=#fff2cc;strokeColor=#FF0000;entryX=0;entryY=0.5;entryDx=0;entryDy=0;" parent="1" source="um7V8yeOU8bJLNrAl1ep-115" target="um7V8yeOU8bJLNrAl1ep-395" edge="1">
          <mxGeometry width="100" height="100" relative="1" as="geometry">
            <mxPoint x="320" y="80" as="sourcePoint" />
            <mxPoint x="280" y="890" as="targetPoint" />
            <Array as="points">
              <mxPoint x="260" y="580" />
              <mxPoint x="580" y="810" />
            </Array>
          </mxGeometry>
        </mxCell>
        <mxCell id="um7V8yeOU8bJLNrAl1ep-405" value="" style="edgeStyle=elbowEdgeStyle;fontSize=12;html=1;endArrow=ERoneToMany;startArrow=ERmandOne;exitX=1;exitY=0.5;exitDx=0;exitDy=0;fillColor=#fff2cc;entryX=0;entryY=0.5;entryDx=0;entryDy=0;" parent="1" source="um7V8yeOU8bJLNrAl1ep-379" edge="1" target="um7V8yeOU8bJLNrAl1ep-398">
          <mxGeometry width="100" height="100" relative="1" as="geometry">
            <mxPoint x="200.5" y="860" as="sourcePoint" />
            <mxPoint x="450" y="765" as="targetPoint" />
            <Array as="points">
              <mxPoint x="220" y="725" />
              <mxPoint x="310" y="790" />
            </Array>
          </mxGeometry>
        </mxCell>
        <mxCell id="um7V8yeOU8bJLNrAl1ep-413" value="" style="edgeStyle=elbowEdgeStyle;fontSize=12;html=1;endArrow=ERmandOne;startArrow=ERmandOne;strokeColor=#000000;entryX=1;entryY=0.5;entryDx=0;entryDy=0;exitX=0;exitY=0.5;exitDx=0;exitDy=0;" parent="1" source="um7V8yeOU8bJLNrAl1ep-300" target="um7V8yeOU8bJLNrAl1ep-255" edge="1">
          <mxGeometry width="100" height="100" relative="1" as="geometry">
            <mxPoint x="780" y="150" as="sourcePoint" />
            <mxPoint x="880" y="50" as="targetPoint" />
          </mxGeometry>
        </mxCell>
        <mxCell id="um7V8yeOU8bJLNrAl1ep-415" value="CountryLanguageMapping" style="shape=table;startSize=30;container=1;collapsible=1;childLayout=tableLayout;fixedRows=1;rowLines=0;fontStyle=1;align=center;resizeLast=1;fillColor=#d5e8d4;strokeColor=#82b366;fontSize=13;" parent="1" vertex="1">
          <mxGeometry x="1230" y="245" width="270" height="120" as="geometry" />
        </mxCell>
        <mxCell id="um7V8yeOU8bJLNrAl1ep-416" value="" style="shape=partialRectangle;collapsible=0;dropTarget=0;pointerEvents=0;fillColor=#d5e8d4;top=0;left=0;bottom=1;right=0;points=[[0,0.5],[1,0.5]];portConstraint=eastwest;strokeColor=#82b366;" parent="um7V8yeOU8bJLNrAl1ep-415" vertex="1">
          <mxGeometry y="30" width="270" height="30" as="geometry" />
        </mxCell>
        <mxCell id="um7V8yeOU8bJLNrAl1ep-417" value="PK" style="shape=partialRectangle;connectable=0;fillColor=#d5e8d4;top=0;left=0;bottom=0;right=0;fontStyle=1;overflow=hidden;strokeColor=#82b366;" parent="um7V8yeOU8bJLNrAl1ep-416" vertex="1">
          <mxGeometry width="30" height="30" as="geometry" />
        </mxCell>
        <mxCell id="um7V8yeOU8bJLNrAl1ep-418" value="CountryLanguageMappingID (Long Int)" style="shape=partialRectangle;connectable=0;fillColor=#d5e8d4;top=0;left=0;bottom=0;right=0;align=left;spacingLeft=6;fontStyle=5;overflow=hidden;strokeColor=#82b366;" parent="um7V8yeOU8bJLNrAl1ep-416" vertex="1">
          <mxGeometry x="30" width="240" height="30" as="geometry" />
        </mxCell>
        <mxCell id="um7V8yeOU8bJLNrAl1ep-419" value="" style="shape=partialRectangle;collapsible=0;dropTarget=0;pointerEvents=0;fillColor=#d5e8d4;top=0;left=0;bottom=0;right=0;points=[[0,0.5],[1,0.5]];portConstraint=eastwest;strokeColor=#82b366;" parent="um7V8yeOU8bJLNrAl1ep-415" vertex="1">
          <mxGeometry y="60" width="270" height="30" as="geometry" />
        </mxCell>
        <mxCell id="um7V8yeOU8bJLNrAl1ep-420" value="FK" style="shape=partialRectangle;connectable=0;fillColor=#d5e8d4;top=0;left=0;bottom=0;right=0;editable=1;overflow=hidden;strokeColor=#82b366;" parent="um7V8yeOU8bJLNrAl1ep-419" vertex="1">
          <mxGeometry width="30" height="30" as="geometry" />
        </mxCell>
        <mxCell id="um7V8yeOU8bJLNrAl1ep-421" value="CountryCode (Text 2)" style="shape=partialRectangle;connectable=0;fillColor=#d5e8d4;top=0;left=0;bottom=0;right=0;align=left;spacingLeft=6;overflow=hidden;strokeColor=#82b366;" parent="um7V8yeOU8bJLNrAl1ep-419" vertex="1">
          <mxGeometry x="30" width="240" height="30" as="geometry" />
        </mxCell>
        <mxCell id="um7V8yeOU8bJLNrAl1ep-423" style="shape=partialRectangle;collapsible=0;dropTarget=0;pointerEvents=0;fillColor=#d5e8d4;top=0;left=0;bottom=0;right=0;points=[[0,0.5],[1,0.5]];portConstraint=eastwest;strokeColor=#82b366;" parent="um7V8yeOU8bJLNrAl1ep-415" vertex="1">
          <mxGeometry y="90" width="270" height="30" as="geometry" />
        </mxCell>
        <mxCell id="um7V8yeOU8bJLNrAl1ep-424" value="FK" style="shape=partialRectangle;connectable=0;fillColor=#d5e8d4;top=0;left=0;bottom=0;right=0;editable=1;overflow=hidden;strokeColor=#82b366;" parent="um7V8yeOU8bJLNrAl1ep-423" vertex="1">
          <mxGeometry width="30" height="30" as="geometry" />
        </mxCell>
        <mxCell id="um7V8yeOU8bJLNrAl1ep-425" value="LanguageCode (Text)" style="shape=partialRectangle;connectable=0;fillColor=#d5e8d4;top=0;left=0;bottom=0;right=0;align=left;spacingLeft=6;overflow=hidden;strokeColor=#82b366;" parent="um7V8yeOU8bJLNrAl1ep-423" vertex="1">
          <mxGeometry x="30" width="240" height="30" as="geometry" />
        </mxCell>
        <mxCell id="um7V8yeOU8bJLNrAl1ep-427" value="" style="edgeStyle=elbowEdgeStyle;fontSize=12;html=1;endArrow=ERoneToMany;startArrow=ERmandOne;strokeColor=#000000;entryX=0;entryY=0.5;entryDx=0;entryDy=0;exitX=1;exitY=0.5;exitDx=0;exitDy=0;" parent="1" source="um7V8yeOU8bJLNrAl1ep-271" target="um7V8yeOU8bJLNrAl1ep-419" edge="1">
          <mxGeometry width="100" height="100" relative="1" as="geometry">
            <mxPoint x="1090" y="160" as="sourcePoint" />
            <mxPoint x="1130" y="320" as="targetPoint" />
            <Array as="points">
              <mxPoint x="1180" y="520" />
            </Array>
          </mxGeometry>
        </mxCell>
        <mxCell id="um7V8yeOU8bJLNrAl1ep-429" value="" style="edgeStyle=entityRelationEdgeStyle;fontSize=12;html=1;endArrow=ERoneToMany;startArrow=ERmandOne;strokeColor=#000000;exitX=1;exitY=0.5;exitDx=0;exitDy=0;" parent="1" source="um7V8yeOU8bJLNrAl1ep-274" target="um7V8yeOU8bJLNrAl1ep-416" edge="1">
          <mxGeometry width="100" height="100" relative="1" as="geometry">
            <mxPoint x="1330" y="545" as="sourcePoint" />
            <mxPoint x="1430" y="445" as="targetPoint" />
          </mxGeometry>
        </mxCell>
        <mxCell id="um7V8yeOU8bJLNrAl1ep-430" value="TimeZone" style="shape=table;startSize=30;container=1;collapsible=1;childLayout=tableLayout;fixedRows=1;rowLines=0;fontStyle=1;align=center;resizeLast=1;fillColor=#d5e8d4;strokeColor=#82b366;fontSize=13;" parent="1" vertex="1">
          <mxGeometry x="1380" y="521" width="210" height="150" as="geometry" />
        </mxCell>
        <mxCell id="um7V8yeOU8bJLNrAl1ep-431" value="" style="shape=partialRectangle;collapsible=0;dropTarget=0;pointerEvents=0;fillColor=#d5e8d4;top=0;left=0;bottom=1;right=0;points=[[0,0.5],[1,0.5]];portConstraint=eastwest;strokeColor=#82b366;" parent="um7V8yeOU8bJLNrAl1ep-430" vertex="1">
          <mxGeometry y="30" width="210" height="30" as="geometry" />
        </mxCell>
        <mxCell id="um7V8yeOU8bJLNrAl1ep-432" value="PK" style="shape=partialRectangle;connectable=0;fillColor=#d5e8d4;top=0;left=0;bottom=0;right=0;fontStyle=1;overflow=hidden;strokeColor=#82b366;" parent="um7V8yeOU8bJLNrAl1ep-431" vertex="1">
          <mxGeometry width="30" height="30" as="geometry" />
        </mxCell>
        <mxCell id="um7V8yeOU8bJLNrAl1ep-433" value="TimeZoneCode (Long Int)" style="shape=partialRectangle;connectable=0;fillColor=#d5e8d4;top=0;left=0;bottom=0;right=0;align=left;spacingLeft=6;fontStyle=5;overflow=hidden;strokeColor=#82b366;" parent="um7V8yeOU8bJLNrAl1ep-431" vertex="1">
          <mxGeometry x="30" width="180" height="30" as="geometry" />
        </mxCell>
        <mxCell id="um7V8yeOU8bJLNrAl1ep-440" style="shape=partialRectangle;collapsible=0;dropTarget=0;pointerEvents=0;fillColor=#d5e8d4;top=0;left=0;bottom=1;right=0;points=[[0,0.5],[1,0.5]];portConstraint=eastwest;strokeColor=#82b366;" parent="um7V8yeOU8bJLNrAl1ep-430" vertex="1">
          <mxGeometry y="60" width="210" height="30" as="geometry" />
        </mxCell>
        <mxCell id="um7V8yeOU8bJLNrAl1ep-441" value="FK" style="shape=partialRectangle;connectable=0;fillColor=#d5e8d4;top=0;left=0;bottom=0;right=0;fontStyle=1;overflow=hidden;strokeColor=#82b366;" parent="um7V8yeOU8bJLNrAl1ep-440" vertex="1">
          <mxGeometry width="30" height="30" as="geometry" />
        </mxCell>
        <mxCell id="um7V8yeOU8bJLNrAl1ep-442" value="CountryCode (Text 2)" style="shape=partialRectangle;connectable=0;fillColor=#d5e8d4;top=0;left=0;bottom=0;right=0;align=left;spacingLeft=6;fontStyle=5;overflow=hidden;strokeColor=#82b366;" parent="um7V8yeOU8bJLNrAl1ep-440" vertex="1">
          <mxGeometry x="30" width="180" height="30" as="geometry" />
        </mxCell>
        <mxCell id="um7V8yeOU8bJLNrAl1ep-434" value="" style="shape=partialRectangle;collapsible=0;dropTarget=0;pointerEvents=0;fillColor=#d5e8d4;top=0;left=0;bottom=0;right=0;points=[[0,0.5],[1,0.5]];portConstraint=eastwest;strokeColor=#82b366;" parent="um7V8yeOU8bJLNrAl1ep-430" vertex="1">
          <mxGeometry y="90" width="210" height="30" as="geometry" />
        </mxCell>
        <mxCell id="um7V8yeOU8bJLNrAl1ep-435" value="" style="shape=partialRectangle;connectable=0;fillColor=#d5e8d4;top=0;left=0;bottom=0;right=0;editable=1;overflow=hidden;strokeColor=#82b366;" parent="um7V8yeOU8bJLNrAl1ep-434" vertex="1">
          <mxGeometry width="30" height="30" as="geometry" />
        </mxCell>
        <mxCell id="um7V8yeOU8bJLNrAl1ep-436" value="TimeZoneDescription (Text)" style="shape=partialRectangle;connectable=0;fillColor=#d5e8d4;top=0;left=0;bottom=0;right=0;align=left;spacingLeft=6;overflow=hidden;strokeColor=#82b366;" parent="um7V8yeOU8bJLNrAl1ep-434" vertex="1">
          <mxGeometry x="30" width="180" height="30" as="geometry" />
        </mxCell>
        <mxCell id="um7V8yeOU8bJLNrAl1ep-437" style="shape=partialRectangle;collapsible=0;dropTarget=0;pointerEvents=0;fillColor=#d5e8d4;top=0;left=0;bottom=0;right=0;points=[[0,0.5],[1,0.5]];portConstraint=eastwest;strokeColor=#82b366;" parent="um7V8yeOU8bJLNrAl1ep-430" vertex="1">
          <mxGeometry y="120" width="210" height="30" as="geometry" />
        </mxCell>
        <mxCell id="um7V8yeOU8bJLNrAl1ep-438" style="shape=partialRectangle;connectable=0;fillColor=#d5e8d4;top=0;left=0;bottom=0;right=0;editable=1;overflow=hidden;strokeColor=#82b366;" parent="um7V8yeOU8bJLNrAl1ep-437" vertex="1">
          <mxGeometry width="30" height="30" as="geometry" />
        </mxCell>
        <mxCell id="um7V8yeOU8bJLNrAl1ep-439" value="TimeZoneValue (Decimal)" style="shape=partialRectangle;connectable=0;fillColor=#d5e8d4;top=0;left=0;bottom=0;right=0;align=left;spacingLeft=6;overflow=hidden;strokeColor=#82b366;" parent="um7V8yeOU8bJLNrAl1ep-437" vertex="1">
          <mxGeometry x="30" width="180" height="30" as="geometry" />
        </mxCell>
        <mxCell id="um7V8yeOU8bJLNrAl1ep-443" value="" style="edgeStyle=elbowEdgeStyle;fontSize=12;html=1;endArrow=ERoneToMany;startArrow=ERmandOne;strokeColor=#000000;exitX=1;exitY=0.5;exitDx=0;exitDy=0;" parent="1" source="um7V8yeOU8bJLNrAl1ep-259" target="um7V8yeOU8bJLNrAl1ep-440" edge="1">
          <mxGeometry width="100" height="100" relative="1" as="geometry">
            <mxPoint x="1067" y="180" as="sourcePoint" />
            <mxPoint x="970" y="360" as="targetPoint" />
            <Array as="points">
              <mxPoint x="1360" y="600" />
              <mxPoint x="990" y="660" />
              <mxPoint x="1280" y="670" />
            </Array>
          </mxGeometry>
        </mxCell>
        <mxCell id="ytQHOX12ccqXf4K22i1F-76" value="Category" style="shape=table;startSize=30;container=1;collapsible=1;childLayout=tableLayout;fixedRows=1;rowLines=0;fontStyle=1;align=center;resizeLast=1;fillColor=#d5e8d4;strokeColor=#82b366;" parent="1" vertex="1">
          <mxGeometry x="48.5" y="490" width="185" height="150" as="geometry" />
        </mxCell>
        <mxCell id="ytQHOX12ccqXf4K22i1F-77" value="" style="shape=partialRectangle;collapsible=0;dropTarget=0;pointerEvents=0;fillColor=#d5e8d4;top=0;left=0;bottom=1;right=0;points=[[0,0.5],[1,0.5]];portConstraint=eastwest;strokeColor=#82b366;" parent="ytQHOX12ccqXf4K22i1F-76" vertex="1">
          <mxGeometry y="30" width="185" height="30" as="geometry" />
        </mxCell>
        <mxCell id="ytQHOX12ccqXf4K22i1F-78" value="PK" style="shape=partialRectangle;connectable=0;fillColor=#d5e8d4;top=0;left=0;bottom=0;right=0;fontStyle=1;overflow=hidden;strokeColor=#82b366;" parent="ytQHOX12ccqXf4K22i1F-77" vertex="1">
          <mxGeometry width="30" height="30" as="geometry" />
        </mxCell>
        <mxCell id="ytQHOX12ccqXf4K22i1F-79" value="CategoryID (LongInteger)" style="shape=partialRectangle;connectable=0;fillColor=#d5e8d4;top=0;left=0;bottom=0;right=0;align=left;spacingLeft=6;fontStyle=5;overflow=hidden;strokeColor=#82b366;" parent="ytQHOX12ccqXf4K22i1F-77" vertex="1">
          <mxGeometry x="30" width="155" height="30" as="geometry" />
        </mxCell>
        <mxCell id="ytQHOX12ccqXf4K22i1F-80" value="" style="shape=partialRectangle;collapsible=0;dropTarget=0;pointerEvents=0;fillColor=#d5e8d4;top=0;left=0;bottom=0;right=0;points=[[0,0.5],[1,0.5]];portConstraint=eastwest;strokeColor=#82b366;" parent="ytQHOX12ccqXf4K22i1F-76" vertex="1">
          <mxGeometry y="60" width="185" height="30" as="geometry" />
        </mxCell>
        <mxCell id="ytQHOX12ccqXf4K22i1F-81" value="" style="shape=partialRectangle;connectable=0;fillColor=#d5e8d4;top=0;left=0;bottom=0;right=0;editable=1;overflow=hidden;strokeColor=#82b366;" parent="ytQHOX12ccqXf4K22i1F-80" vertex="1">
          <mxGeometry width="30" height="30" as="geometry" />
        </mxCell>
        <mxCell id="ytQHOX12ccqXf4K22i1F-82" value="CategoryCode (Text 3)" style="shape=partialRectangle;connectable=0;fillColor=#d5e8d4;top=0;left=0;bottom=0;right=0;align=left;spacingLeft=6;overflow=hidden;strokeColor=#82b366;" parent="ytQHOX12ccqXf4K22i1F-80" vertex="1">
          <mxGeometry x="30" width="155" height="30" as="geometry" />
        </mxCell>
        <mxCell id="ytQHOX12ccqXf4K22i1F-83" value="" style="shape=partialRectangle;collapsible=0;dropTarget=0;pointerEvents=0;fillColor=#d5e8d4;top=0;left=0;bottom=0;right=0;points=[[0,0.5],[1,0.5]];portConstraint=eastwest;strokeColor=#82b366;" parent="ytQHOX12ccqXf4K22i1F-76" vertex="1">
          <mxGeometry y="90" width="185" height="30" as="geometry" />
        </mxCell>
        <mxCell id="ytQHOX12ccqXf4K22i1F-84" value="" style="shape=partialRectangle;connectable=0;fillColor=#d5e8d4;top=0;left=0;bottom=0;right=0;editable=1;overflow=hidden;strokeColor=#82b366;" parent="ytQHOX12ccqXf4K22i1F-83" vertex="1">
          <mxGeometry width="30" height="30" as="geometry" />
        </mxCell>
        <mxCell id="ytQHOX12ccqXf4K22i1F-85" value="CategoryName (Text)" style="shape=partialRectangle;connectable=0;fillColor=#d5e8d4;top=0;left=0;bottom=0;right=0;align=left;spacingLeft=6;overflow=hidden;strokeColor=#82b366;" parent="ytQHOX12ccqXf4K22i1F-83" vertex="1">
          <mxGeometry x="30" width="155" height="30" as="geometry" />
        </mxCell>
        <mxCell id="ytQHOX12ccqXf4K22i1F-86" style="shape=partialRectangle;collapsible=0;dropTarget=0;pointerEvents=0;fillColor=#d5e8d4;top=0;left=0;bottom=0;right=0;points=[[0,0.5],[1,0.5]];portConstraint=eastwest;strokeColor=#82b366;" parent="ytQHOX12ccqXf4K22i1F-76" vertex="1">
          <mxGeometry y="120" width="185" height="30" as="geometry" />
        </mxCell>
        <mxCell id="ytQHOX12ccqXf4K22i1F-87" style="shape=partialRectangle;connectable=0;fillColor=#d5e8d4;top=0;left=0;bottom=0;right=0;editable=1;overflow=hidden;strokeColor=#82b366;" parent="ytQHOX12ccqXf4K22i1F-86" vertex="1">
          <mxGeometry width="30" height="30" as="geometry" />
        </mxCell>
        <mxCell id="ytQHOX12ccqXf4K22i1F-88" value="IsActive (Boolean)" style="shape=partialRectangle;connectable=0;fillColor=#d5e8d4;top=0;left=0;bottom=0;right=0;align=left;spacingLeft=6;overflow=hidden;strokeColor=#82b366;" parent="ytQHOX12ccqXf4K22i1F-86" vertex="1">
          <mxGeometry x="30" width="155" height="30" as="geometry" />
        </mxCell>
        <mxCell id="ytQHOX12ccqXf4K22i1F-89" value="" style="edgeStyle=elbowEdgeStyle;fontSize=12;html=1;endArrow=ERoneToMany;strokeColor=#000066;exitX=1;exitY=0.5;exitDx=0;exitDy=0;" parent="1" source="ytQHOX12ccqXf4K22i1F-77" edge="1">
          <mxGeometry width="100" height="100" relative="1" as="geometry">
            <mxPoint x="90" y="600" as="sourcePoint" />
            <mxPoint x="320" y="150" as="targetPoint" />
            <Array as="points">
              <mxPoint x="290" y="360" />
            </Array>
          </mxGeometry>
        </mxCell>
        <mxCell id="um7V8yeOU8bJLNrAl1ep-194" value="AdditionalProductDetails" style="shape=table;startSize=30;container=1;collapsible=1;childLayout=tableLayout;fixedRows=1;rowLines=0;fontStyle=1;align=center;resizeLast=1;fillColor=#d5e8d4;strokeColor=#82b366;fontSize=13;" parent="1" vertex="1">
          <mxGeometry x="750" y="25" width="230" height="480" as="geometry" />
        </mxCell>
        <mxCell id="um7V8yeOU8bJLNrAl1ep-195" value="" style="shape=partialRectangle;collapsible=0;dropTarget=0;pointerEvents=0;fillColor=#d5e8d4;top=0;left=0;bottom=1;right=0;points=[[0,0.5],[1,0.5]];portConstraint=eastwest;strokeColor=#82b366;" parent="um7V8yeOU8bJLNrAl1ep-194" vertex="1">
          <mxGeometry y="30" width="230" height="30" as="geometry" />
        </mxCell>
        <mxCell id="um7V8yeOU8bJLNrAl1ep-196" value="PK" style="shape=partialRectangle;connectable=0;fillColor=#d5e8d4;top=0;left=0;bottom=0;right=0;fontStyle=1;overflow=hidden;strokeColor=#82b366;" parent="um7V8yeOU8bJLNrAl1ep-195" vertex="1">
          <mxGeometry width="30" height="30" as="geometry" />
        </mxCell>
        <mxCell id="um7V8yeOU8bJLNrAl1ep-197" value="ProductDetailsID  (Long Integer)" style="shape=partialRectangle;connectable=0;fillColor=#d5e8d4;top=0;left=0;bottom=0;right=0;align=left;spacingLeft=6;fontStyle=5;overflow=hidden;strokeColor=#82b366;" parent="um7V8yeOU8bJLNrAl1ep-195" vertex="1">
          <mxGeometry x="30" width="200" height="30" as="geometry" />
        </mxCell>
        <mxCell id="um7V8yeOU8bJLNrAl1ep-207" style="shape=partialRectangle;collapsible=0;dropTarget=0;pointerEvents=0;fillColor=#d5e8d4;top=0;left=0;bottom=1;right=0;points=[[0,0.5],[1,0.5]];portConstraint=eastwest;strokeColor=#82b366;" parent="um7V8yeOU8bJLNrAl1ep-194" vertex="1">
          <mxGeometry y="60" width="230" height="30" as="geometry" />
        </mxCell>
        <mxCell id="um7V8yeOU8bJLNrAl1ep-208" value="FK" style="shape=partialRectangle;connectable=0;fillColor=#d5e8d4;top=0;left=0;bottom=0;right=0;fontStyle=1;overflow=hidden;strokeColor=#82b366;" parent="um7V8yeOU8bJLNrAl1ep-207" vertex="1">
          <mxGeometry width="30" height="30" as="geometry" />
        </mxCell>
        <mxCell id="um7V8yeOU8bJLNrAl1ep-209" value="ProductID (Long Integer)" style="shape=partialRectangle;connectable=0;fillColor=#d5e8d4;top=0;left=0;bottom=0;right=0;align=left;spacingLeft=6;fontStyle=5;overflow=hidden;strokeColor=#82b366;" parent="um7V8yeOU8bJLNrAl1ep-207" vertex="1">
          <mxGeometry x="30" width="200" height="30" as="geometry" />
        </mxCell>
        <mxCell id="um7V8yeOU8bJLNrAl1ep-198" value="" style="shape=partialRectangle;collapsible=0;dropTarget=0;pointerEvents=0;fillColor=#d5e8d4;top=0;left=0;bottom=0;right=0;points=[[0,0.5],[1,0.5]];portConstraint=eastwest;strokeColor=#82b366;" parent="um7V8yeOU8bJLNrAl1ep-194" vertex="1">
          <mxGeometry y="90" width="230" height="30" as="geometry" />
        </mxCell>
        <mxCell id="um7V8yeOU8bJLNrAl1ep-199" value="" style="shape=partialRectangle;connectable=0;fillColor=#d5e8d4;top=0;left=0;bottom=0;right=0;editable=1;overflow=hidden;strokeColor=#82b366;" parent="um7V8yeOU8bJLNrAl1ep-198" vertex="1">
          <mxGeometry width="30" height="30" as="geometry" />
        </mxCell>
        <mxCell id="um7V8yeOU8bJLNrAl1ep-200" value="RAMCapacity (int)" style="shape=partialRectangle;connectable=0;fillColor=#d5e8d4;top=0;left=0;bottom=0;right=0;align=left;spacingLeft=6;overflow=hidden;strokeColor=#82b366;" parent="um7V8yeOU8bJLNrAl1ep-198" vertex="1">
          <mxGeometry x="30" width="200" height="30" as="geometry" />
        </mxCell>
        <mxCell id="BsSwm072BiJTackBYxDn-19" style="shape=partialRectangle;collapsible=0;dropTarget=0;pointerEvents=0;fillColor=#d5e8d4;top=0;left=0;bottom=0;right=0;points=[[0,0.5],[1,0.5]];portConstraint=eastwest;strokeColor=#82b366;" vertex="1" parent="um7V8yeOU8bJLNrAl1ep-194">
          <mxGeometry y="120" width="230" height="30" as="geometry" />
        </mxCell>
        <mxCell id="BsSwm072BiJTackBYxDn-20" style="shape=partialRectangle;connectable=0;fillColor=#d5e8d4;top=0;left=0;bottom=0;right=0;editable=1;overflow=hidden;strokeColor=#82b366;" vertex="1" parent="BsSwm072BiJTackBYxDn-19">
          <mxGeometry width="30" height="30" as="geometry" />
        </mxCell>
        <mxCell id="BsSwm072BiJTackBYxDn-21" value="RAMType (Text) [DDR etc)" style="shape=partialRectangle;connectable=0;fillColor=#d5e8d4;top=0;left=0;bottom=0;right=0;align=left;spacingLeft=6;overflow=hidden;strokeColor=#82b366;" vertex="1" parent="BsSwm072BiJTackBYxDn-19">
          <mxGeometry x="30" width="200" height="30" as="geometry" />
        </mxCell>
        <mxCell id="um7V8yeOU8bJLNrAl1ep-201" value="" style="shape=partialRectangle;collapsible=0;dropTarget=0;pointerEvents=0;fillColor=#d5e8d4;top=0;left=0;bottom=0;right=0;points=[[0,0.5],[1,0.5]];portConstraint=eastwest;strokeColor=#82b366;" parent="um7V8yeOU8bJLNrAl1ep-194" vertex="1">
          <mxGeometry y="150" width="230" height="30" as="geometry" />
        </mxCell>
        <mxCell id="um7V8yeOU8bJLNrAl1ep-202" value="" style="shape=partialRectangle;connectable=0;fillColor=#d5e8d4;top=0;left=0;bottom=0;right=0;editable=1;overflow=hidden;strokeColor=#82b366;" parent="um7V8yeOU8bJLNrAl1ep-201" vertex="1">
          <mxGeometry width="30" height="30" as="geometry" />
        </mxCell>
        <mxCell id="um7V8yeOU8bJLNrAl1ep-203" value="StorageCapacity (int) " style="shape=partialRectangle;connectable=0;fillColor=#d5e8d4;top=0;left=0;bottom=0;right=0;align=left;spacingLeft=6;overflow=hidden;strokeColor=#82b366;" parent="um7V8yeOU8bJLNrAl1ep-201" vertex="1">
          <mxGeometry x="30" width="200" height="30" as="geometry" />
        </mxCell>
        <mxCell id="BsSwm072BiJTackBYxDn-16" style="shape=partialRectangle;collapsible=0;dropTarget=0;pointerEvents=0;fillColor=#d5e8d4;top=0;left=0;bottom=0;right=0;points=[[0,0.5],[1,0.5]];portConstraint=eastwest;strokeColor=#82b366;" vertex="1" parent="um7V8yeOU8bJLNrAl1ep-194">
          <mxGeometry y="180" width="230" height="30" as="geometry" />
        </mxCell>
        <mxCell id="BsSwm072BiJTackBYxDn-17" style="shape=partialRectangle;connectable=0;fillColor=#d5e8d4;top=0;left=0;bottom=0;right=0;editable=1;overflow=hidden;strokeColor=#82b366;" vertex="1" parent="BsSwm072BiJTackBYxDn-16">
          <mxGeometry width="30" height="30" as="geometry" />
        </mxCell>
        <mxCell id="BsSwm072BiJTackBYxDn-18" style="shape=partialRectangle;connectable=0;fillColor=#d5e8d4;top=0;left=0;bottom=0;right=0;align=left;spacingLeft=6;overflow=hidden;strokeColor=#82b366;" vertex="1" parent="BsSwm072BiJTackBYxDn-16">
          <mxGeometry x="30" width="200" height="30" as="geometry" />
        </mxCell>
        <mxCell id="um7V8yeOU8bJLNrAl1ep-204" style="shape=partialRectangle;collapsible=0;dropTarget=0;pointerEvents=0;fillColor=#d5e8d4;top=0;left=0;bottom=0;right=0;points=[[0,0.5],[1,0.5]];portConstraint=eastwest;strokeColor=#82b366;" parent="um7V8yeOU8bJLNrAl1ep-194" vertex="1">
          <mxGeometry y="210" width="230" height="30" as="geometry" />
        </mxCell>
        <mxCell id="um7V8yeOU8bJLNrAl1ep-205" style="shape=partialRectangle;connectable=0;fillColor=#d5e8d4;top=0;left=0;bottom=0;right=0;editable=1;overflow=hidden;strokeColor=#82b366;" parent="um7V8yeOU8bJLNrAl1ep-204" vertex="1">
          <mxGeometry width="30" height="30" as="geometry" />
        </mxCell>
        <mxCell id="um7V8yeOU8bJLNrAl1ep-206" value="Battery (Text)" style="shape=partialRectangle;connectable=0;fillColor=#d5e8d4;top=0;left=0;bottom=0;right=0;align=left;spacingLeft=6;overflow=hidden;strokeColor=#82b366;" parent="um7V8yeOU8bJLNrAl1ep-204" vertex="1">
          <mxGeometry x="30" width="200" height="30" as="geometry" />
        </mxCell>
        <mxCell id="um7V8yeOU8bJLNrAl1ep-213" style="shape=partialRectangle;collapsible=0;dropTarget=0;pointerEvents=0;fillColor=#d5e8d4;top=0;left=0;bottom=0;right=0;points=[[0,0.5],[1,0.5]];portConstraint=eastwest;strokeColor=#82b366;" parent="um7V8yeOU8bJLNrAl1ep-194" vertex="1">
          <mxGeometry y="240" width="230" height="30" as="geometry" />
        </mxCell>
        <mxCell id="um7V8yeOU8bJLNrAl1ep-214" style="shape=partialRectangle;connectable=0;fillColor=#d5e8d4;top=0;left=0;bottom=0;right=0;editable=1;overflow=hidden;strokeColor=#82b366;" parent="um7V8yeOU8bJLNrAl1ep-213" vertex="1">
          <mxGeometry width="30" height="30" as="geometry" />
        </mxCell>
        <mxCell id="um7V8yeOU8bJLNrAl1ep-215" value="ScreenSize (Text)" style="shape=partialRectangle;connectable=0;fillColor=#d5e8d4;top=0;left=0;bottom=0;right=0;align=left;spacingLeft=6;overflow=hidden;strokeColor=#82b366;" parent="um7V8yeOU8bJLNrAl1ep-213" vertex="1">
          <mxGeometry x="30" width="200" height="30" as="geometry" />
        </mxCell>
        <mxCell id="um7V8yeOU8bJLNrAl1ep-216" style="shape=partialRectangle;collapsible=0;dropTarget=0;pointerEvents=0;fillColor=#d5e8d4;top=0;left=0;bottom=0;right=0;points=[[0,0.5],[1,0.5]];portConstraint=eastwest;strokeColor=#82b366;" parent="um7V8yeOU8bJLNrAl1ep-194" vertex="1">
          <mxGeometry y="270" width="230" height="30" as="geometry" />
        </mxCell>
        <mxCell id="um7V8yeOU8bJLNrAl1ep-217" style="shape=partialRectangle;connectable=0;fillColor=#d5e8d4;top=0;left=0;bottom=0;right=0;editable=1;overflow=hidden;strokeColor=#82b366;" parent="um7V8yeOU8bJLNrAl1ep-216" vertex="1">
          <mxGeometry width="30" height="30" as="geometry" />
        </mxCell>
        <mxCell id="um7V8yeOU8bJLNrAl1ep-218" value="ProductDepth (Text)" style="shape=partialRectangle;connectable=0;fillColor=#d5e8d4;top=0;left=0;bottom=0;right=0;align=left;spacingLeft=6;overflow=hidden;strokeColor=#82b366;" parent="um7V8yeOU8bJLNrAl1ep-216" vertex="1">
          <mxGeometry x="30" width="200" height="30" as="geometry" />
        </mxCell>
        <mxCell id="BsSwm072BiJTackBYxDn-23" style="shape=partialRectangle;collapsible=0;dropTarget=0;pointerEvents=0;fillColor=#d5e8d4;top=0;left=0;bottom=0;right=0;points=[[0,0.5],[1,0.5]];portConstraint=eastwest;strokeColor=#82b366;" vertex="1" parent="um7V8yeOU8bJLNrAl1ep-194">
          <mxGeometry y="300" width="230" height="30" as="geometry" />
        </mxCell>
        <mxCell id="BsSwm072BiJTackBYxDn-24" style="shape=partialRectangle;connectable=0;fillColor=#d5e8d4;top=0;left=0;bottom=0;right=0;editable=1;overflow=hidden;strokeColor=#82b366;" vertex="1" parent="BsSwm072BiJTackBYxDn-23">
          <mxGeometry width="30" height="30" as="geometry" />
        </mxCell>
        <mxCell id="BsSwm072BiJTackBYxDn-25" value="ProductDimension(Text)" style="shape=partialRectangle;connectable=0;fillColor=#d5e8d4;top=0;left=0;bottom=0;right=0;align=left;spacingLeft=6;overflow=hidden;strokeColor=#82b366;" vertex="1" parent="BsSwm072BiJTackBYxDn-23">
          <mxGeometry x="30" width="200" height="30" as="geometry" />
        </mxCell>
        <mxCell id="BsSwm072BiJTackBYxDn-26" style="shape=partialRectangle;collapsible=0;dropTarget=0;pointerEvents=0;fillColor=#d5e8d4;top=0;left=0;bottom=0;right=0;points=[[0,0.5],[1,0.5]];portConstraint=eastwest;strokeColor=#82b366;" vertex="1" parent="um7V8yeOU8bJLNrAl1ep-194">
          <mxGeometry y="330" width="230" height="30" as="geometry" />
        </mxCell>
        <mxCell id="BsSwm072BiJTackBYxDn-27" style="shape=partialRectangle;connectable=0;fillColor=#d5e8d4;top=0;left=0;bottom=0;right=0;editable=1;overflow=hidden;strokeColor=#82b366;" vertex="1" parent="BsSwm072BiJTackBYxDn-26">
          <mxGeometry width="30" height="30" as="geometry" />
        </mxCell>
        <mxCell id="BsSwm072BiJTackBYxDn-28" value="ProductWeight (Text)" style="shape=partialRectangle;connectable=0;fillColor=#d5e8d4;top=0;left=0;bottom=0;right=0;align=left;spacingLeft=6;overflow=hidden;strokeColor=#82b366;" vertex="1" parent="BsSwm072BiJTackBYxDn-26">
          <mxGeometry x="30" width="200" height="30" as="geometry" />
        </mxCell>
        <mxCell id="um7V8yeOU8bJLNrAl1ep-219" style="shape=partialRectangle;collapsible=0;dropTarget=0;pointerEvents=0;fillColor=#d5e8d4;top=0;left=0;bottom=0;right=0;points=[[0,0.5],[1,0.5]];portConstraint=eastwest;strokeColor=#82b366;" parent="um7V8yeOU8bJLNrAl1ep-194" vertex="1">
          <mxGeometry y="360" width="230" height="30" as="geometry" />
        </mxCell>
        <mxCell id="um7V8yeOU8bJLNrAl1ep-220" style="shape=partialRectangle;connectable=0;fillColor=#d5e8d4;top=0;left=0;bottom=0;right=0;editable=1;overflow=hidden;strokeColor=#82b366;" parent="um7V8yeOU8bJLNrAl1ep-219" vertex="1">
          <mxGeometry width="30" height="30" as="geometry" />
        </mxCell>
        <mxCell id="um7V8yeOU8bJLNrAl1ep-221" value="Touch (Boolean)" style="shape=partialRectangle;connectable=0;fillColor=#d5e8d4;top=0;left=0;bottom=0;right=0;align=left;spacingLeft=6;overflow=hidden;strokeColor=#82b366;" parent="um7V8yeOU8bJLNrAl1ep-219" vertex="1">
          <mxGeometry x="30" width="200" height="30" as="geometry" />
        </mxCell>
        <mxCell id="um7V8yeOU8bJLNrAl1ep-222" style="shape=partialRectangle;collapsible=0;dropTarget=0;pointerEvents=0;fillColor=#d5e8d4;top=0;left=0;bottom=0;right=0;points=[[0,0.5],[1,0.5]];portConstraint=eastwest;strokeColor=#82b366;" parent="um7V8yeOU8bJLNrAl1ep-194" vertex="1">
          <mxGeometry y="390" width="230" height="30" as="geometry" />
        </mxCell>
        <mxCell id="um7V8yeOU8bJLNrAl1ep-223" style="shape=partialRectangle;connectable=0;fillColor=#d5e8d4;top=0;left=0;bottom=0;right=0;editable=1;overflow=hidden;strokeColor=#82b366;" parent="um7V8yeOU8bJLNrAl1ep-222" vertex="1">
          <mxGeometry width="30" height="30" as="geometry" />
        </mxCell>
        <mxCell id="um7V8yeOU8bJLNrAl1ep-224" value="GraphicsCard (Text)" style="shape=partialRectangle;connectable=0;fillColor=#d5e8d4;top=0;left=0;bottom=0;right=0;align=left;spacingLeft=6;overflow=hidden;strokeColor=#82b366;" parent="um7V8yeOU8bJLNrAl1ep-222" vertex="1">
          <mxGeometry x="30" width="200" height="30" as="geometry" />
        </mxCell>
        <mxCell id="um7V8yeOU8bJLNrAl1ep-225" style="shape=partialRectangle;collapsible=0;dropTarget=0;pointerEvents=0;fillColor=#d5e8d4;top=0;left=0;bottom=0;right=0;points=[[0,0.5],[1,0.5]];portConstraint=eastwest;strokeColor=#82b366;" parent="um7V8yeOU8bJLNrAl1ep-194" vertex="1">
          <mxGeometry y="420" width="230" height="30" as="geometry" />
        </mxCell>
        <mxCell id="um7V8yeOU8bJLNrAl1ep-226" style="shape=partialRectangle;connectable=0;fillColor=#d5e8d4;top=0;left=0;bottom=0;right=0;editable=1;overflow=hidden;strokeColor=#82b366;" parent="um7V8yeOU8bJLNrAl1ep-225" vertex="1">
          <mxGeometry width="30" height="30" as="geometry" />
        </mxCell>
        <mxCell id="um7V8yeOU8bJLNrAl1ep-227" value="FingerprintScanner (Boolean)" style="shape=partialRectangle;connectable=0;fillColor=#d5e8d4;top=0;left=0;bottom=0;right=0;align=left;spacingLeft=6;overflow=hidden;strokeColor=#82b366;" parent="um7V8yeOU8bJLNrAl1ep-225" vertex="1">
          <mxGeometry x="30" width="200" height="30" as="geometry" />
        </mxCell>
        <mxCell id="BsSwm072BiJTackBYxDn-47" style="shape=partialRectangle;collapsible=0;dropTarget=0;pointerEvents=0;fillColor=#d5e8d4;top=0;left=0;bottom=0;right=0;points=[[0,0.5],[1,0.5]];portConstraint=eastwest;strokeColor=#82b366;" vertex="1" parent="um7V8yeOU8bJLNrAl1ep-194">
          <mxGeometry y="450" width="230" height="30" as="geometry" />
        </mxCell>
        <mxCell id="BsSwm072BiJTackBYxDn-48" style="shape=partialRectangle;connectable=0;fillColor=#d5e8d4;top=0;left=0;bottom=0;right=0;editable=1;overflow=hidden;strokeColor=#82b366;" vertex="1" parent="BsSwm072BiJTackBYxDn-47">
          <mxGeometry width="30" height="30" as="geometry" />
        </mxCell>
        <mxCell id="BsSwm072BiJTackBYxDn-49" value="WarrentyPeriod (Int) " style="shape=partialRectangle;connectable=0;fillColor=#d5e8d4;top=0;left=0;bottom=0;right=0;align=left;spacingLeft=6;overflow=hidden;strokeColor=#82b366;" vertex="1" parent="BsSwm072BiJTackBYxDn-47">
          <mxGeometry x="30" width="200" height="30" as="geometry" />
        </mxCell>
        <mxCell id="BsSwm072BiJTackBYxDn-22" value="StorageType (Text) (HDD /SSD)" style="shape=partialRectangle;connectable=0;fillColor=#d5e8d4;top=0;left=0;bottom=0;right=0;align=left;spacingLeft=6;overflow=hidden;strokeColor=#82b366;" vertex="1" parent="1">
          <mxGeometry x="780" y="205" width="200" height="30" as="geometry" />
        </mxCell>
      </root>
    </mxGraphModel>
  </diagram>
</mxfile>
